<svg version="1.1" viewBox="0.0 0.0 768.0 474.0" fill="none" stroke="none" stroke-linecap="square" stroke-miterlimit="10" width="768" height="474" xmlns:xlink="http://www.w3.org/1999/xlink" xmlns="http://www.w3.org/2000/svg"><path fill="#ffffff" d="M0 0L768.0 0L768.0 474.0L0 474.0L0 0Z" fill-rule="nonzero"/><path stroke="#333333" stroke-width="1.0" stroke-linecap="butt" d="M120.5 416.5L744.5 416.5" fill-rule="nonzero"/><path stroke="#000000" stroke-width="1.0" stroke-linecap="butt" d="M120.5 359.5L744.5 359.5" fill-rule="nonzero"/><path stroke="#000000" stroke-width="1.0" stroke-linecap="butt" d="M120.5 302.5L744.5 302.5" fill-rule="nonzero"/><path stroke="#000000" stroke-width="1.0" stroke-linecap="butt" d="M120.5 245.5L744.5 245.5" fill-rule="nonzero"/><path stroke="#000000" stroke-width="1.0" stroke-linecap="butt" d="M120.5 188.5L744.5 188.5" fill-rule="nonzero"/><path stroke="#000000" stroke-width="1.0" stroke-linecap="butt" d="M120.5 131.5L744.5 131.5" fill-rule="nonzero"/><path stroke="#000000" stroke-width="1.0" stroke-linecap="butt" d="M120.5 75.5L744.5 75.5" fill-rule="nonzero"/><path stroke="#b7b7b7" stroke-width="1.0" stroke-linecap="butt" d="M120.5 404.5L744.5 404.5" fill-rule="nonzero"/><path stroke="#b7b7b7" stroke-width="1.0" stroke-linecap="butt" d="M120.5 393.5L744.5 393.5" fill-rule="nonzero"/><path stroke="#b7b7b7" stroke-width="1.0" stroke-linecap="butt" d="M120.5 382.5L744.5 382.5" fill-rule="nonzero"/><path stroke="#b7b7b7" stroke-width="1.0" stroke-linecap="butt" d="M120.5 370.5L744.5 370.5" fill-rule="nonzero"/><path stroke="#b7b7b7" stroke-width="1.0" stroke-linecap="butt" d="M120.5 348.5L744.5 348.5" fill-rule="nonzero"/><path stroke="#b7b7b7" stroke-width="1.0" stroke-linecap="butt" d="M120.5 336.5L744.5 336.5" fill-rule="nonzero"/><path stroke="#b7b7b7" stroke-width="1.0" stroke-linecap="butt" d="M120.5 325.5L744.5 325.5" fill-rule="nonzero"/><path stroke="#b7b7b7" stroke-width="1.0" stroke-linecap="butt" d="M120.5 313.5L744.5 313.5" fill-rule="nonzero"/><path stroke="#b7b7b7" stroke-width="1.0" stroke-linecap="butt" d="M120.5 291.5L744.5 291.5" fill-rule="nonzero"/><path stroke="#b7b7b7" stroke-width="1.0" stroke-linecap="butt" d="M120.5 279.5L744.5 279.5" fill-rule="nonzero"/><path stroke="#b7b7b7" stroke-width="1.0" stroke-linecap="butt" d="M120.5 268.5L744.5 268.5" fill-rule="nonzero"/><path stroke="#b7b7b7" stroke-width="1.0" stroke-linecap="butt" d="M120.5 257.5L744.5 257.5" fill-rule="nonzero"/><path stroke="#b7b7b7" stroke-width="1.0" stroke-linecap="butt" d="M120.5 234.5L744.5 234.5" fill-rule="nonzero"/><path stroke="#b7b7b7" stroke-width="1.0" stroke-linecap="butt" d="M120.5 222.5L744.5 222.5" fill-rule="nonzero"/><path stroke="#b7b7b7" stroke-width="1.0" stroke-linecap="butt" d="M120.5 211.5L744.5 211.5" fill-rule="nonzero"/><path stroke="#b7b7b7" stroke-width="1.0" stroke-linecap="butt" d="M120.5 200.5L744.5 200.5" fill-rule="nonzero"/><path stroke="#b7b7b7" stroke-width="1.0" stroke-linecap="butt" d="M120.5 177.5L744.5 177.5" fill-rule="nonzero"/><path stroke="#b7b7b7" stroke-width="1.0" stroke-linecap="butt" d="M120.5 166.5L744.5 166.5" fill-rule="nonzero"/><path stroke="#b7b7b7" stroke-width="1.0" stroke-linecap="butt" d="M120.5 154.5L744.5 154.5" fill-rule="nonzero"/><path stroke="#b7b7b7" stroke-width="1.0" stroke-linecap="butt" d="M120.5 143.5L744.5 143.5" fill-rule="nonzero"/><path stroke="#b7b7b7" stroke-width="1.0" stroke-linecap="butt" d="M120.5 120.5L744.5 120.5" fill-rule="nonzero"/><path stroke="#b7b7b7" stroke-width="1.0" stroke-linecap="butt" d="M120.5 109.5L744.5 109.5" fill-rule="nonzero"/><path stroke="#b7b7b7" stroke-width="1.0" stroke-linecap="butt" d="M120.5 97.5L744.5 97.5" fill-rule="nonzero"/><path stroke="#b7b7b7" stroke-width="1.0" stroke-linecap="butt" d="M120.5 86.5L744.5 86.5" fill-rule="nonzero"/><clipPath id="id_0"><path d="M120.7 75.0L744.3 75.0L744.3 416.3L120.7 416.3L120.7 75.0Z" clip-rule="nonzero"/></clipPath><path stroke="#000000" stroke-width="2.0" stroke-linecap="butt" stroke-opacity="0.0" clip-path="url(#id_0)" d="M186.0 416.0L163.0 416.0L163.0 193.0C163.0 191.89543 163.89543 191.0 165.0 191.0L184.0 191.0C185.10457 191.0 186.0 191.89543 186.0 193.0Z" fill-rule="nonzero"/><path fill="#00ff00" clip-path="url(#id_0)" d="M186.0 416.0L163.0 416.0L163.0 193.0C163.0 191.89543 163.89543 191.0 165.0 191.0L184.0 191.0C185.10457 191.0 186.0 191.89543 186.0 193.0Z" fill-rule="nonzero"/><path stroke="#000000" stroke-width="2.0" stroke-linecap="butt" stroke-opacity="0.0" clip-path="url(#id_0)" d="M303.0 416.0L280.0 416.0L280.0 108.0C280.0 106.89543 280.89542 106.0 282.0 106.0L301.0 106.0C302.10458 106.0 303.0 106.89543 303.0 108.0Z" fill-rule="nonzero"/><path fill="#00ff00" clip-path="url(#id_0)" d="M303.0 416.0L280.0 416.0L280.0 108.0C280.0 106.89543 280.89542 106.0 282.0 106.0L301.0 106.0C302.10458 106.0 303.0 106.89543 303.0 108.0Z" fill-rule="nonzero"/><path stroke="#000000" stroke-width="2.0" stroke-linecap="butt" stroke-opacity="0.0" clip-path="url(#id_0)" d="M420.0 416.0L397.0 416.0L397.0 105.0C397.0 103.89543 397.89542 103.0 399.0 103.0L418.0 103.0C419.10458 103.0 420.0 103.89543 420.0 105.0Z" fill-rule="nonzero"/><path fill="#00ff00" clip-path="url(#id_0)" d="M420.0 416.0L397.0 416.0L397.0 105.0C397.0 103.89543 397.89542 103.0 399.0 103.0L418.0 103.0C419.10458 103.0 420.0 103.89543 420.0 105.0Z" fill-rule="nonzero"/><path stroke="#000000" stroke-width="2.0" stroke-linecap="butt" stroke-opacity="0.0" clip-path="url(#id_0)" d="M536.0 416.0L513.0 416.0L513.0 103.0C513.0 101.89543 513.89545 101.0 515.0 101.0L534.0 101.0C535.10455 101.0 536.0 101.89543 536.0 103.0Z" fill-rule="nonzero"/><path fill="#00ff00" clip-path="url(#id_0)" d="M536.0 416.0L513.0 416.0L513.0 103.0C513.0 101.89543 513.89545 101.0 515.0 101.0L534.0 101.0C535.10455 101.0 536.0 101.89543 536.0 103.0Z" fill-rule="nonzero"/><path stroke="#000000" stroke-width="2.0" stroke-linecap="butt" stroke-opacity="0.0" clip-path="url(#id_0)" d="M653.0 416.0L630.0 416.0L630.0 101.0C630.0 99.89543 630.89545 99.0 632.0 99.0L651.0 99.0C652.10455 99.0 653.0 99.89543 653.0 101.0Z" fill-rule="nonzero"/><path fill="#00ff00" clip-path="url(#id_0)" d="M653.0 416.0L630.0 416.0L630.0 101.0C630.0 99.89543 630.89545 99.0 632.0 99.0L651.0 99.0C652.10455 99.0 653.0 99.89543 653.0 101.0Z" fill-rule="nonzero"/><path stroke="#000000" stroke-width="2.0" stroke-linecap="butt" stroke-opacity="0.0" clip-path="url(#id_0)" d="M211.0 416.0L188.0 416.0L188.0 202.0C188.0 200.89543 188.89543 200.0 190.0 200.0L209.0 200.0C210.10457 200.0 211.0 200.89543 211.0 202.0Z" fill-rule="nonzero"/><path fill="#ff00ff" clip-path="url(#id_0)" d="M211.0 416.0L188.0 416.0L188.0 202.0C188.0 200.89543 188.89543 200.0 190.0 200.0L209.0 200.0C210.10457 200.0 211.0 200.89543 211.0 202.0Z" fill-rule="nonzero"/><path stroke="#000000" stroke-width="2.0" stroke-linecap="butt" stroke-opacity="0.0" clip-path="url(#id_0)" d="M328.0 416.0L305.0 416.0L305.0 125.0C305.0 123.89543 305.89542 123.0 307.0 123.0L326.0 123.0C327.10458 123.0 328.0 123.89543 328.0 125.0Z" fill-rule="nonzero"/><path fill="#ff00ff" clip-path="url(#id_0)" d="M328.0 416.0L305.0 416.0L305.0 125.0C305.0 123.89543 305.89542 123.0 307.0 123.0L326.0 123.0C327.10458 123.0 328.0 123.89543 328.0 125.0Z" fill-rule="nonzero"/><path stroke="#000000" stroke-width="2.0" stroke-linecap="butt" stroke-opacity="0.0" clip-path="url(#id_0)" d="M445.0 416.0L422.0 416.0L422.0 123.0C422.0 121.89543 422.89542 121.0 424.0 121.0L443.0 121.0C444.10458 121.0 445.0 121.89543 445.0 123.0Z" fill-rule="nonzero"/><path fill="#ff00ff" clip-path="url(#id_0)" d="M445.0 416.0L422.0 416.0L422.0 123.0C422.0 121.89543 422.89542 121.0 424.0 121.0L443.0 121.0C444.10458 121.0 445.0 121.89543 445.0 123.0Z" fill-rule="nonzero"/><path stroke="#000000" stroke-width="2.0" stroke-linecap="butt" stroke-opacity="0.0" clip-path="url(#id_0)" d="M561.0 416.0L538.0 416.0L538.0 125.0C538.0 123.89543 538.89545 123.0 540.0 123.0L559.0 123.0C560.10455 123.0 561.0 123.89543 561.0 125.0Z" fill-rule="nonzero"/><path fill="#ff00ff" clip-path="url(#id_0)" d="M561.0 416.0L538.0 416.0L538.0 125.0C538.0 123.89543 538.89545 123.0 540.0 123.0L559.0 123.0C560.10455 123.0 561.0 123.89543 561.0 125.0Z" fill-rule="nonzero"/><path stroke="#000000" stroke-width="2.0" stroke-linecap="butt" stroke-opacity="0.0" clip-path="url(#id_0)" d="M678.0 416.0L655.0 416.0L655.0 124.0C655.0 122.89543 655.89545 122.0 657.0 122.0L676.0 122.0C677.10455 122.0 678.0 122.89543 678.0 124.0Z" fill-rule="nonzero"/><path fill="#ff00ff" clip-path="url(#id_0)" d="M678.0 416.0L655.0 416.0L655.0 124.0C655.0 122.89543 655.89545 122.0 657.0 122.0L676.0 122.0C677.10455 122.0 678.0 122.89543 678.0 124.0Z" fill-rule="nonzero"/><path stroke="#000000" stroke-width="2.0" stroke-linecap="butt" stroke-opacity="0.0" clip-path="url(#id_0)" d="M236.0 416.0L213.0 416.0L213.0 285.0C213.0 283.89542 213.89543 283.0 215.0 283.0L234.0 283.0C235.10457 283.0 236.0 283.89542 236.0 285.0Z" fill-rule="nonzero"/><path fill="#0000ff" clip-path="url(#id_0)" d="M236.0 416.0L213.0 416.0L213.0 285.0C213.0 283.89542 213.89543 283.0 215.0 283.0L234.0 283.0C235.10457 283.0 236.0 283.89542 236.0 285.0Z" fill-rule="nonzero"/><path stroke="#000000" stroke-width="2.0" stroke-linecap="butt" stroke-opacity="0.0" clip-path="url(#id_0)" d="M353.0 416.0L330.0 416.0L330.0 246.0C330.0 244.89543 330.89542 244.0 332.0 244.0L351.0 244.0C352.10458 244.0 353.0 244.89543 353.0 246.0Z" fill-rule="nonzero"/><path fill="#0000ff" clip-path="url(#id_0)" d="M353.0 416.0L330.0 416.0L330.0 246.0C330.0 244.89543 330.89542 244.0 332.0 244.0L351.0 244.0C352.10458 244.0 353.0 244.89543 353.0 246.0Z" fill-rule="nonzero"/><path stroke="#000000" stroke-width="2.0" stroke-linecap="butt" stroke-opacity="0.0" clip-path="url(#id_0)" d="M470.0 416.0L447.0 416.0L447.0 246.0C447.0 244.89543 447.89542 244.0 449.0 244.0L468.0 244.0C469.10458 244.0 470.0 244.89543 470.0 246.0Z" fill-rule="nonzero"/><path fill="#0000ff" clip-path="url(#id_0)" d="M470.0 416.0L447.0 416.0L447.0 246.0C447.0 244.89543 447.89542 244.0 449.0 244.0L468.0 244.0C469.10458 244.0 470.0 244.89543 470.0 246.0Z" fill-rule="nonzero"/><path stroke="#000000" stroke-width="2.0" stroke-linecap="butt" stroke-opacity="0.0" clip-path="url(#id_0)" d="M586.0 416.0L563.0 416.0L563.0 246.0C563.0 244.89543 563.89545 244.0 565.0 244.0L584.0 244.0C585.10455 244.0 586.0 244.89543 586.0 246.0Z" fill-rule="nonzero"/><path fill="#0000ff" clip-path="url(#id_0)" d="M586.0 416.0L563.0 416.0L563.0 246.0C563.0 244.89543 563.89545 244.0 565.0 244.0L584.0 244.0C585.10455 244.0 586.0 244.89543 586.0 246.0Z" fill-rule="nonzero"/><path stroke="#000000" stroke-width="2.0" stroke-linecap="butt" stroke-opacity="0.0" clip-path="url(#id_0)" d="M703.0 416.0L680.0 416.0L680.0 246.0C680.0 244.89543 680.89545 244.0 682.0 244.0L701.0 244.0C702.10455 244.0 703.0 244.89543 703.0 246.0Z" fill-rule="nonzero"/><path fill="#0000ff" clip-path="url(#id_0)" d="M703.0 416.0L680.0 416.0L680.0 246.0C680.0 244.89543 680.89545 244.0 682.0 244.0L701.0 244.0C702.10455 244.0 703.0 244.89543 703.0 246.0Z" fill-rule="nonzero"/><path fill="#000000" d="M38.184364 278.4625L38.69999 276.38437Q41.278114 277.04062 42.621864 278.74374Q43.965614 280.44687 43.965614 282.9Q43.965614 285.44687 42.934364 287.04062Q41.88749 288.63437 39.934364 289.47812Q37.965614 290.30624 35.69999 290.30624Q33.246864 290.30624 31.418737 289.36874Q29.590612 288.43124 28.637487 286.69687Q27.684362 284.94687 27.684362 282.86874Q27.684362 280.50937 28.887487 278.9Q30.090612 277.29062 32.26249 276.65L32.746864 278.69687Q31.028112 279.24374 30.246862 280.29062Q29.465612 281.3375 29.465612 282.91562Q29.465612 284.72812 30.340612 285.94687Q31.199987 287.16562 32.66874 287.66562Q34.13749 288.15 35.69999 288.15Q37.69999 288.15 39.19999 287.57187Q40.69999 286.97812 41.44999 285.74374Q42.184364 284.50937 42.184364 283.07187Q42.184364 281.32187 41.184364 280.11874Q40.16874 278.9 38.184364 278.4625ZM25.856237 282.9L24.043737 281.72812L24.043737 279.525L27.043737 281.94687L27.043737 284.00937L24.043737 286.32187L24.043737 284.11874L25.856237 282.9ZM42.29374 266.50937Q43.19999 267.57187 43.590614 268.57187Q43.965614 269.57187 43.965614 270.7125Q43.965614 272.5875 43.04374 273.60312Q42.121864 274.60312 40.684364 274.60312Q39.85624 274.60312 39.16874 274.22812Q38.465614 273.8375 38.059364 273.22812Q37.63749 272.60312 37.41874 271.8375Q37.26249 271.25937 37.121864 270.11874Q36.840614 267.775 36.465614 266.66562Q36.059364 266.65 35.94999 266.65Q34.778114 266.65 34.29374 267.19687Q33.63749 267.94687 33.63749 269.4Q33.63749 270.775 34.121864 271.43124Q34.590614 272.07187 35.809364 272.38437L35.54374 274.275Q34.32499 274.00937 33.590614 273.43124Q32.840614 272.8375 32.434364 271.72812Q32.028114 270.60312 32.028114 269.11874Q32.028114 267.66562 32.371864 266.75937Q32.715614 265.8375 33.246864 265.41562Q33.76249 264.97812 34.559364 264.80624Q35.059364 264.7125 36.340614 264.7125L38.91874 264.7125Q41.621864 264.7125 42.340614 264.5875Q43.04374 264.4625 43.69999 264.10312L43.69999 266.11874Q43.090614 266.41562 42.29374 266.50937ZM37.98124 266.66562Q38.403114 267.7125 38.69999 269.82187Q38.871864 271.00937 39.090614 271.50937Q39.309364 272.00937 39.73124 272.275Q40.13749 272.54062 40.63749 272.54062Q41.41874 272.54062 41.934364 271.9625Q42.44999 271.36874 42.44999 270.24374Q42.44999 269.11874 41.965614 268.25937Q41.465614 267.38437 40.621864 266.97812Q39.965614 266.66562 38.684364 266.66562L37.98124 266.66562ZM40.29374 262.72812L39.996864 260.80624Q41.13749 260.65 41.76249 259.91562Q42.371864 259.18124 42.371864 257.85312Q42.371864 256.525 41.82499 255.88437Q41.278114 255.22812 40.559364 255.22812Q39.903114 255.22812 39.528114 255.80624Q39.26249 256.19687 38.871864 257.775Q38.32499 259.91562 37.934364 260.74374Q37.54374 261.55624 36.85624 261.97812Q36.153114 262.4 35.32499 262.4Q34.559364 262.4 33.91874 262.05624Q33.26249 261.69687 32.82499 261.10312Q32.496864 260.65 32.26249 259.86874Q32.028114 259.0875 32.028114 258.19687Q32.028114 256.85312 32.41874 255.8375Q32.809364 254.82187 33.465614 254.3375Q34.121864 253.85312 35.23124 253.68124L35.496864 255.57187Q34.60624 255.69687 34.121864 256.32187Q33.621864 256.93124 33.621864 258.05624Q33.621864 259.4 34.059364 259.9625Q34.496864 260.525 35.090614 260.525Q35.465614 260.525 35.778114 260.29062Q36.090614 260.05624 36.29374 259.55624Q36.38749 259.25937 36.778114 257.85312Q37.32499 255.79062 37.684364 254.97812Q38.028114 254.16562 38.69999 253.7125Q39.35624 253.24374 40.340614 253.24374Q41.309364 253.24374 42.16874 253.80624Q43.028114 254.36874 43.496864 255.44687Q43.965614 256.50937 43.965614 257.85312Q43.965614 260.07187 43.04374 261.24374Q42.10624 262.4 40.29374 262.72812ZM48.07499 244.9L27.949987 244.9L27.949987 240.63437L29.559362 240.63437L29.559362 242.97812L46.465614 242.97812L46.465614 240.63437L48.07499 240.63437L48.07499 244.9ZM40.29374 239.72812L39.996864 237.80624Q41.13749 237.65 41.76249 236.91562Q42.371864 236.18124 42.371864 234.85312Q42.371864 233.525 41.82499 232.88437Q41.278114 232.22812 40.559364 232.22812Q39.903114 232.22812 39.528114 232.80624Q39.26249 233.19687 38.871864 234.775Q38.32499 236.91562 37.934364 237.74374Q37.54374 238.55624 36.85624 238.97812Q36.153114 239.4 35.32499 239.4Q34.559364 239.4 33.91874 239.05624Q33.26249 238.69687 32.82499 238.10312Q32.496864 237.65 32.26249 236.86874Q32.028114 236.0875 32.028114 235.19687Q32.028114 233.85312 32.41874 232.8375Q32.809364 231.82187 33.465614 231.3375Q34.121864 230.85312 35.23124 230.68124L35.496864 232.57187Q34.60624 232.69687 34.121864 233.32187Q33.621864 233.93124 33.621864 235.05624Q33.621864 236.4 34.059364 236.9625Q34.496864 237.525 35.090614 237.525Q35.465614 237.525 35.778114 237.29062Q36.090614 237.05624 36.29374 236.55624Q36.38749 236.25937 36.778114 234.85312Q37.32499 232.79062 37.684364 231.97812Q38.028114 231.16562 38.69999 230.7125Q39.35624 230.24374 40.340614 230.24374Q41.309364 230.24374 42.16874 230.80624Q43.028114 231.36874 43.496864 232.44687Q43.965614 233.50937 43.965614 234.85312Q43.965614 237.07187 43.04374 238.24374Q42.10624 239.4 40.29374 239.72812ZM48.07499 224.7125L48.07499 228.97812L46.465614 228.97812L46.465614 226.65L29.559362 226.65L29.559362 228.97812L27.949987 228.97812L27.949987 224.7125L48.07499 224.7125Z" fill-rule="nonzero"/><path fill="#000000" d="M87.45 416.4406Q87.45 414.15936 87.91875 412.76874Q88.3875 411.3781 89.30937 410.6281Q90.24687 409.8625 91.65312 409.8625Q92.68437 409.8625 93.46562 410.28436Q94.24687 410.6906 94.74687 411.4875Q95.2625 412.26874 95.55937 413.40936Q95.85625 414.53436 95.85625 416.4406Q95.85625 418.70624 95.3875 420.1125Q94.91875 421.5031 93.98125 422.26874Q93.05937 423.01874 91.65312 423.01874Q89.77812 423.01874 88.71562 421.6906Q87.45 420.08124 87.45 416.4406ZM89.075 416.4406Q89.075 419.6125 89.80937 420.675Q90.55937 421.72186 91.65312 421.72186Q92.73125 421.72186 93.48125 420.675Q94.23125 419.6125 94.23125 416.4406Q94.23125 413.26874 93.48125 412.22186Q92.73125 411.175 91.6375 411.175Q90.54375 411.175 89.8875 412.09686Q89.075 413.26874 89.075 416.4406ZM98.29375 422.8L98.29375 421.0031L100.10625 421.0031L100.10625 422.8Q100.10625 423.8 99.74687 424.40936Q99.40312 425.01874 98.6375 425.34686L98.2 424.675Q98.7 424.45624 98.93437 424.01874Q99.16875 423.59686 99.2 422.8L98.29375 422.8ZM102.45 416.4406Q102.45 414.15936 102.91875 412.76874Q103.3875 411.3781 104.30937 410.6281Q105.24687 409.8625 106.65312 409.8625Q107.68437 409.8625 108.46562 410.28436Q109.24687 410.6906 109.74687 411.4875Q110.2625 412.26874 110.55937 413.40936Q110.85625 414.53436 110.85625 416.4406Q110.85625 418.70624 110.3875 420.1125Q109.91875 421.5031 108.98125 422.26874Q108.05937 423.01874 106.65312 423.01874Q104.77812 423.01874 103.71562 421.6906Q102.45 420.08124 102.45 416.4406ZM104.075 416.4406Q104.075 419.6125 104.80937 420.675Q105.55937 421.72186 106.65312 421.72186Q107.73125 421.72186 108.48125 420.675Q109.23125 419.6125 109.23125 416.4406Q109.23125 413.26874 108.48125 412.22186Q107.73125 411.175 106.6375 411.175Q105.54375 411.175 104.8875 412.09686Q104.075 413.26874 104.075 416.4406Z" fill-rule="nonzero"/><path fill="#000000" d="M87.45 359.55728Q87.45 357.27603 87.91875 355.8854Q88.3875 354.49478 89.30937 353.74478Q90.24687 352.97916 91.65312 352.97916Q92.68437 352.97916 93.46562 353.40103Q94.24687 353.80728 94.74687 354.60416Q95.2625 355.3854 95.55937 356.52603Q95.85625 357.65103 95.85625 359.55728Q95.85625 361.8229 95.3875 363.22916Q94.91875 364.61978 93.98125 365.3854Q93.05937 366.1354 91.65312 366.1354Q89.77812 366.1354 88.71562 364.80728Q87.45 363.1979 87.45 359.55728ZM89.075 359.55728Q89.075 362.72916 89.80937 363.79166Q90.55937 364.83853 91.65312 364.83853Q92.73125 364.83853 93.48125 363.79166Q94.23125 362.72916 94.23125 359.55728Q94.23125 356.3854 93.48125 355.33853Q92.73125 354.29166 91.6375 354.29166Q90.54375 354.29166 89.8875 355.21353Q89.075 356.3854 89.075 359.55728ZM98.29375 365.91666L98.29375 364.11978L100.10625 364.11978L100.10625 365.91666Q100.10625 366.91666 99.74687 367.52603Q99.40312 368.1354 98.6375 368.46353L98.2 367.79166Q98.7 367.5729 98.93437 367.1354Q99.16875 366.71353 99.2 365.91666L98.29375 365.91666ZM102.45 362.54166L104.10625 362.40103Q104.29375 363.61978 104.96562 364.22916Q105.6375 364.83853 106.59062 364.83853Q107.73125 364.83853 108.5125 363.97916Q109.30937 363.11978 109.30937 361.68228Q109.30937 360.33853 108.54375 359.55728Q107.79375 358.77603 106.55937 358.77603Q105.79375 358.77603 105.16875 359.11978Q104.55937 359.46353 104.21562 360.02603L102.73125 359.8229L103.98125 353.21353L110.3875 353.21353L110.3875 354.71353L105.24687 354.71353L104.54375 358.18228Q105.71562 357.36978 106.98125 357.36978Q108.66875 357.36978 109.825 358.54166Q110.99687 359.71353 110.99687 361.54166Q110.99687 363.29166 109.96562 364.5729Q108.73125 366.1354 106.59062 366.1354Q104.825 366.1354 103.71562 365.15103Q102.60625 364.16666 102.45 362.54166Z" fill-rule="nonzero"/><path fill="#000000" d="M93.40312 309.03333L91.825 309.03333L91.825 298.9552Q91.24687 299.50208 90.325 300.04895Q89.40312 300.5802 88.65312 300.86145L88.65312 299.3302Q89.98125 298.7052 90.98125 297.81458Q91.98125 296.92395 92.3875 296.09583L93.40312 296.09583L93.40312 309.03333ZM98.29375 309.03333L98.29375 307.23645L100.10625 307.23645L100.10625 309.03333Q100.10625 310.03333 99.74687 310.6427Q99.40312 311.25208 98.6375 311.5802L98.2 310.90833Q98.7 310.68958 98.93437 310.25208Q99.16875 309.8302 99.2 309.03333L98.29375 309.03333ZM102.45 302.67395Q102.45 300.3927 102.91875 299.00208Q103.3875 297.61145 104.30937 296.86145Q105.24687 296.09583 106.65312 296.09583Q107.68437 296.09583 108.46562 296.5177Q109.24687 296.92395 109.74687 297.72083Q110.2625 298.50208 110.55937 299.6427Q110.85625 300.7677 110.85625 302.67395Q110.85625 304.93958 110.3875 306.34583Q109.91875 307.73645 108.98125 308.50208Q108.05937 309.25208 106.65312 309.25208Q104.77812 309.25208 103.71562 307.92395Q102.45 306.31458 102.45 302.67395ZM104.075 302.67395Q104.075 305.84583 104.80937 306.90833Q105.55937 307.9552 106.65312 307.9552Q107.73125 307.9552 108.48125 306.90833Q109.23125 305.84583 109.23125 302.67395Q109.23125 299.50208 108.48125 298.4552Q107.73125 297.40833 106.6375 297.40833Q105.54375 297.40833 104.8875 298.3302Q104.075 299.50208 104.075 302.67395Z" fill-rule="nonzero"/><path fill="#000000" d="M93.40312 252.15L91.825 252.15L91.825 242.07187Q91.24687 242.61874 90.325 243.16562Q89.40312 243.69687 88.65312 243.97812L88.65312 242.44687Q89.98125 241.82187 90.98125 240.93124Q91.98125 240.04062 92.3875 239.2125L93.40312 239.2125L93.40312 252.15ZM98.29375 252.15L98.29375 250.35312L100.10625 250.35312L100.10625 252.15Q100.10625 253.15 99.74687 253.75937Q99.40312 254.36874 98.6375 254.69687L98.2 254.025Q98.7 253.80624 98.93437 253.36874Q99.16875 252.94687 99.2 252.15L98.29375 252.15ZM102.45 248.775L104.10625 248.63437Q104.29375 249.85312 104.96562 250.4625Q105.6375 251.07187 106.59062 251.07187Q107.73125 251.07187 108.5125 250.2125Q109.30937 249.35312 109.30937 247.91562Q109.30937 246.57187 108.54375 245.79062Q107.79375 245.00937 106.55937 245.00937Q105.79375 245.00937 105.16875 245.35312Q104.55937 245.69687 104.21562 246.25937L102.73125 246.05624L103.98125 239.44687L110.3875 239.44687L110.3875 240.94687L105.24687 240.94687L104.54375 244.41562Q105.71562 243.60312 106.98125 243.60312Q108.66875 243.60312 109.825 244.775Q110.99687 245.94687 110.99687 247.775Q110.99687 249.525 109.96562 250.80624Q108.73125 252.36874 106.59062 252.36874Q104.825 252.36874 103.71562 251.38437Q102.60625 250.4 102.45 248.775Z" fill-rule="nonzero"/><path fill="#000000" d="M95.7625 193.75104L95.7625 195.26666L87.24687 195.26666Q87.23125 194.68854 87.43437 194.17291Q87.7625 193.29791 88.46562 192.45416Q89.18437 191.61041 90.54375 190.50104Q92.6375 188.78229 93.37187 187.78229Q94.12187 186.76666 94.12187 185.87604Q94.12187 184.92291 93.45 184.28229Q92.77812 183.64166 91.7 183.64166Q90.54375 183.64166 89.85625 184.32916Q89.18437 185.01666 89.16875 186.21979L87.54375 186.04791Q87.71562 184.23541 88.79375 183.28229Q89.8875 182.32916 91.73125 182.32916Q93.575 182.32916 94.65312 183.36041Q95.74687 184.39166 95.74687 185.90729Q95.74687 186.67291 95.41875 187.42291Q95.10625 188.17291 94.37187 189.00104Q93.6375 189.82916 91.93437 191.26666Q90.5125 192.46979 90.10625 192.89166Q89.7 193.31354 89.45 193.75104L95.7625 193.75104ZM98.29375 195.26666L98.29375 193.46979L100.10625 193.46979L100.10625 195.26666Q100.10625 196.26666 99.74687 196.87604Q99.40312 197.48541 98.6375 197.81354L98.2 197.14166Q98.7 196.92291 98.93437 196.48541Q99.16875 196.06354 99.2 195.26666L98.29375 195.26666ZM102.45 188.90729Q102.45 186.62604 102.91875 185.23541Q103.3875 183.84479 104.30937 183.09479Q105.24687 182.32916 106.65312 182.32916Q107.68437 182.32916 108.46562 182.75104Q109.24687 183.15729 109.74687 183.95416Q110.2625 184.73541 110.55937 185.87604Q110.85625 187.00104 110.85625 188.90729Q110.85625 191.17291 110.3875 192.57916Q109.91875 193.96979 108.98125 194.73541Q108.05937 195.48541 106.65312 195.48541Q104.77812 195.48541 103.71562 194.15729Q102.45 192.54791 102.45 188.90729ZM104.075 188.90729Q104.075 192.07916 104.80937 193.14166Q105.55937 194.18854 106.65312 194.18854Q107.73125 194.18854 108.48125 193.14166Q109.23125 192.07916 109.23125 188.90729Q109.23125 185.73541 108.48125 184.68854Q107.73125 183.64166 106.6375 183.64166Q105.54375 183.64166 104.8875 184.56354Q104.075 185.73541 104.075 188.90729Z" fill-rule="nonzero"/><path fill="#000000" d="M95.7625 136.8677L95.7625 138.38333L87.24687 138.38333Q87.23125 137.8052 87.43437 137.28958Q87.7625 136.41458 88.46562 135.57083Q89.18437 134.72708 90.54375 133.6177Q92.6375 131.89896 93.37187 130.89896Q94.12187 129.88333 94.12187 128.9927Q94.12187 128.03958 93.45 127.39896Q92.77812 126.75833 91.7 126.75833Q90.54375 126.75833 89.85625 127.44583Q89.18437 128.13333 89.16875 129.33646L87.54375 129.16458Q87.71562 127.35208 88.79375 126.39896Q89.8875 125.44583 91.73125 125.44583Q93.575 125.44583 94.65312 126.47708Q95.74687 127.50833 95.74687 129.02396Q95.74687 129.78958 95.41875 130.53958Q95.10625 131.28958 94.37187 132.1177Q93.6375 132.94583 91.93437 134.38333Q90.5125 135.58646 90.10625 136.00833Q89.7 136.4302 89.45 136.8677L95.7625 136.8677ZM98.29375 138.38333L98.29375 136.58646L100.10625 136.58646L100.10625 138.38333Q100.10625 139.38333 99.74687 139.9927Q99.40312 140.60208 98.6375 140.9302L98.2 140.25833Q98.7 140.03958 98.93437 139.60208Q99.16875 139.1802 99.2 138.38333L98.29375 138.38333ZM102.45 135.00833L104.10625 134.8677Q104.29375 136.08646 104.96562 136.69583Q105.6375 137.3052 106.59062 137.3052Q107.73125 137.3052 108.5125 136.44583Q109.30937 135.58646 109.30937 134.14896Q109.30937 132.8052 108.54375 132.02396Q107.79375 131.2427 106.55937 131.2427Q105.79375 131.2427 105.16875 131.58646Q104.55937 131.9302 104.21562 132.4927L102.73125 132.28958L103.98125 125.68021L110.3875 125.68021L110.3875 127.18021L105.24687 127.18021L104.54375 130.64896Q105.71562 129.83646 106.98125 129.83646Q108.66875 129.83646 109.825 131.00833Q110.99687 132.1802 110.99687 134.00833Q110.99687 135.75833 109.96562 137.03958Q108.73125 138.60208 106.59062 138.60208Q104.825 138.60208 103.71562 137.6177Q102.60625 136.63333 102.45 135.00833Z" fill-rule="nonzero"/><path fill="#000000" d="M87.45 78.09375L89.04375 77.890625Q89.30937 79.234375 89.96562 79.828125Q90.62187 80.421875 91.55937 80.421875Q92.68437 80.421875 93.45 79.65625Q94.21562 78.875 94.21562 77.734375Q94.21562 76.640625 93.49687 75.9375Q92.79375 75.21875 91.7 75.21875Q91.24687 75.21875 90.575 75.40625L90.74687 74.015625Q90.90312 74.03125 91.0125 74.03125Q92.0125 74.03125 92.825 73.5Q93.6375 72.96875 93.6375 71.875Q93.6375 71.0 93.04375 70.4375Q92.45 69.859375 91.52812 69.859375Q90.60625 69.859375 89.98125 70.4375Q89.37187 71.015625 89.2 72.1875L87.62187 71.90625Q87.90312 70.3125 88.93437 69.4375Q89.96562 68.5625 91.49687 68.5625Q92.54375 68.5625 93.43437 69.015625Q94.325 69.46875 94.79375 70.25Q95.2625 71.03125 95.2625 71.90625Q95.2625 72.75 94.80937 73.4375Q94.37187 74.109375 93.48125 74.515625Q94.62187 74.78125 95.24687 75.625Q95.8875 76.453125 95.8875 77.6875Q95.8875 79.375 94.65312 80.5625Q93.43437 81.734375 91.55937 81.734375Q89.85625 81.734375 88.73125 80.71875Q87.62187 79.703125 87.45 78.09375ZM98.29375 81.5L98.29375 79.703125L100.10625 79.703125L100.10625 81.5Q100.10625 82.5 99.74687 83.109375Q99.40312 83.71875 98.6375 84.046875L98.2 83.375Q98.7 83.15625 98.93437 82.71875Q99.16875 82.296875 99.2 81.5L98.29375 81.5ZM102.45 75.140625Q102.45 72.859375 102.91875 71.46875Q103.3875 70.078125 104.30937 69.328125Q105.24687 68.5625 106.65312 68.5625Q107.68437 68.5625 108.46562 68.984375Q109.24687 69.390625 109.74687 70.1875Q110.2625 70.96875 110.55937 72.109375Q110.85625 73.234375 110.85625 75.140625Q110.85625 77.40625 110.3875 78.8125Q109.91875 80.203125 108.98125 80.96875Q108.05937 81.71875 106.65312 81.71875Q104.77812 81.71875 103.71562 80.390625Q102.45 78.78125 102.45 75.140625ZM104.075 75.140625Q104.075 78.3125 104.80937 79.375Q105.55937 80.421875 106.65312 80.421875Q107.73125 80.421875 108.48125 79.375Q109.23125 78.3125 109.23125 75.140625Q109.23125 71.96875 108.48125 70.921875Q107.73125 69.875 106.6375 69.875Q105.54375 69.875 104.8875 70.796875Q104.075 71.96875 104.075 75.140625Z" fill-rule="nonzero"/><path fill="#000000" d="M183.51913 441.0031L183.51913 439.2375L188.90976 439.2375L188.90976 441.0031L183.51913 441.0031ZM200.08163 445.3L196.12851 434.925L197.98788 434.925L200.22226 441.14374Q200.58163 442.14374 200.87851 443.22186Q201.11288 442.40936 201.53476 441.2531L203.83163 434.925L205.64413 434.925L201.72226 445.3L200.08163 445.3ZM212.33163 445.3L210.56601 445.3L210.56601 434.09686Q209.94101 434.70624 208.90976 435.3156Q207.87851 435.90936 207.05038 436.22186L207.05038 434.51874Q208.53476 433.83124 209.62851 432.84686Q210.73788 431.84686 211.19101 430.925L212.33163 430.925L212.33163 445.3Z" fill-rule="nonzero"/><path fill="#000000" d="M288.14236 445.3L284.18924 434.925L286.0486 434.925L288.283 441.14374Q288.64236 442.14374 288.93924 443.22186Q289.1736 442.40936 289.5955 441.2531L291.89236 434.925L293.70486 434.925L289.783 445.3L288.14236 445.3ZM300.39236 445.3L298.62674 445.3L298.62674 434.09686Q298.00174 434.70624 296.9705 435.3156Q295.93924 435.90936 295.1111 436.22186L295.1111 434.51874Q296.5955 433.83124 297.68924 432.84686Q298.7986 431.84686 299.25174 430.925L300.39236 430.925L300.39236 445.3ZM314.95486 442.9875L314.95486 439.0656L311.0486 439.0656L311.0486 437.425L314.95486 437.425L314.95486 433.51874L316.6111 433.51874L316.6111 437.425L320.50174 437.425L320.50174 439.0656L316.6111 439.0656L316.6111 442.9875L314.95486 442.9875ZM332.14236 445.3L328.18924 434.925L330.0486 434.925L332.283 441.14374Q332.64236 442.14374 332.93924 443.22186Q333.1736 442.40936 333.5955 441.2531L335.89236 434.925L337.70486 434.925L333.783 445.3L332.14236 445.3ZM347.00174 443.6125L347.00174 445.3L337.5486 445.3Q337.533 444.65936 337.75174 444.08124Q338.1111 443.1125 338.908 442.175Q339.70486 441.2375 341.20486 440.0031Q343.5486 438.09686 344.3611 436.9875Q345.18924 435.8625 345.18924 434.8625Q345.18924 433.8156 344.43924 433.09686Q343.68924 432.3781 342.4861 432.3781Q341.2205 432.3781 340.45486 433.14374Q339.68924 433.90936 339.68924 435.2531L337.87674 435.0656Q338.06424 433.05 339.26736 431.9875Q340.4861 430.925 342.533 430.925Q344.57986 430.925 345.783 432.0656Q346.9861 433.20624 346.9861 434.89374Q346.9861 435.7531 346.62674 436.59686Q346.283 437.425 345.4705 438.34686Q344.658 439.2531 342.76736 440.8625Q341.1736 442.1906 340.7205 442.65936Q340.283 443.1281 339.9861 443.6125L347.00174 443.6125Z" fill-rule="nonzero"/><path fill="#000000" d="M407.20312 445.3L403.25 434.925L405.10938 434.925L407.34375 441.14374Q407.70312 442.14374 408.0 443.22186Q408.23438 442.40936 408.65625 441.2531L410.95312 434.925L412.76562 434.925L408.84375 445.3L407.20312 445.3ZM419.45312 445.3L417.6875 445.3L417.6875 434.09686Q417.0625 434.70624 416.03125 435.3156Q415.0 435.90936 414.17188 436.22186L414.17188 434.51874Q415.65625 433.83124 416.75 432.84686Q417.85938 431.84686 418.3125 430.925L419.45312 430.925L419.45312 445.3ZM429.64062 441.0031L429.64062 439.2375L435.03125 439.2375L435.03125 441.0031L429.64062 441.0031ZM446.20312 445.3L442.25 434.925L444.10938 434.925L446.34375 441.14374Q446.70312 442.14374 447.0 443.22186Q447.23438 442.40936 447.65625 441.2531L449.95312 434.925L451.76562 434.925L447.84375 445.3L446.20312 445.3ZM461.0625 443.6125L461.0625 445.3L451.60938 445.3Q451.59375 444.65936 451.8125 444.08124Q452.17188 443.1125 452.96875 442.175Q453.76562 441.2375 455.26562 440.0031Q457.60938 438.09686 458.42188 436.9875Q459.25 435.8625 459.25 434.8625Q459.25 433.8156 458.5 433.09686Q457.75 432.3781 456.54688 432.3781Q455.28125 432.3781 454.51562 433.14374Q453.75 433.90936 453.75 435.2531L451.9375 435.0656Q452.125 433.05 453.32812 431.9875Q454.54688 430.925 456.59375 430.925Q458.64062 430.925 459.84375 432.0656Q461.04688 433.20624 461.04688 434.89374Q461.04688 435.7531 460.6875 436.59686Q460.34375 437.425 459.53125 438.34686Q458.71875 439.2531 456.82812 440.8625Q455.23438 442.1906 454.78125 442.65936Q454.34375 443.1281 454.04688 443.6125L461.0625 443.6125Z" fill-rule="nonzero"/><path fill="#000000" d="M523.26385 445.3L519.3107 434.925L521.1701 434.925L523.4045 441.14374Q523.76385 442.14374 524.0607 443.22186Q524.2951 442.40936 524.717 441.2531L527.01385 434.925L528.82635 434.925L524.9045 445.3L523.26385 445.3ZM535.51385 445.3L533.7482 445.3L533.7482 434.09686Q533.1232 434.70624 532.092 435.3156Q531.0607 435.90936 530.2326 436.22186L530.2326 434.51874Q531.717 433.83124 532.8107 432.84686Q533.9201 431.84686 534.3732 430.925L535.51385 430.925L535.51385 445.3ZM545.6857 433.6125L546.13885 432.22186Q547.6857 432.76874 548.38885 433.175Q548.20135 431.40936 548.20135 430.7375L549.6076 430.7375Q549.57635 431.70624 549.38885 433.15936Q550.38885 432.65936 551.6857 432.22186L552.13885 433.6125Q550.9045 434.01874 549.717 434.15936Q550.3107 434.675 551.38885 436.0031L550.217 436.83124Q549.6545 436.0656 548.8732 434.7375Q548.1545 436.1125 547.6076 436.83124L546.45135 436.0031Q547.592 434.6125 548.07635 434.15936Q546.82635 433.90936 545.6857 433.6125ZM563.26385 445.3L559.3107 434.925L561.1701 434.925L563.4045 441.14374Q563.76385 442.14374 564.0607 443.22186Q564.2951 442.40936 564.717 441.2531L567.01385 434.925L568.82635 434.925L564.9045 445.3L563.26385 445.3ZM578.1232 443.6125L578.1232 445.3L568.6701 445.3Q568.6545 444.65936 568.8732 444.08124Q569.2326 443.1125 570.0295 442.175Q570.82635 441.2375 572.32635 440.0031Q574.6701 438.09686 575.4826 436.9875Q576.3107 435.8625 576.3107 434.8625Q576.3107 433.8156 575.5607 433.09686Q574.8107 432.3781 573.6076 432.3781Q572.342 432.3781 571.57635 433.14374Q570.8107 433.90936 570.8107 435.2531L568.9982 435.0656Q569.1857 433.05 570.38885 431.9875Q571.6076 430.925 573.6545 430.925Q575.70135 430.925 576.9045 432.0656Q578.1076 433.20624 578.1076 434.89374Q578.1076 435.7531 577.7482 436.59686Q577.4045 437.425 576.592 438.34686Q575.7795 439.2531 573.88885 440.8625Q572.2951 442.1906 571.842 442.65936Q571.4045 443.1281 571.1076 443.6125L578.1232 443.6125Z" fill-rule="nonzero"/><path fill="#000000" d="M640.82465 445.3L636.8715 434.925L638.7309 434.925L640.9653 441.14374Q641.32465 442.14374 641.6215 443.22186Q641.8559 442.40936 642.2778 441.2531L644.57465 434.925L646.38715 434.925L642.4653 445.3L640.82465 445.3ZM653.07465 445.3L651.309 445.3L651.309 434.09686Q650.684 434.70624 649.6528 435.3156Q648.6215 435.90936 647.7934 436.22186L647.7934 434.51874Q649.2778 433.83124 650.3715 432.84686Q651.4809 431.84686 651.934 430.925L653.07465 430.925L653.07465 445.3ZM662.6215 445.55L666.7778 430.7375L668.184 430.7375L664.0434 445.55L662.6215 445.55ZM678.82465 445.3L674.8715 434.925L676.7309 434.925L678.9653 441.14374Q679.32465 442.14374 679.6215 443.22186Q679.8559 442.40936 680.2778 441.2531L682.57465 434.925L684.38715 434.925L680.4653 445.3L678.82465 445.3ZM693.684 443.6125L693.684 445.3L684.2309 445.3Q684.2153 444.65936 684.434 444.08124Q684.7934 443.1125 685.5903 442.175Q686.38715 441.2375 687.88715 440.0031Q690.2309 438.09686 691.0434 436.9875Q691.8715 435.8625 691.8715 434.8625Q691.8715 433.8156 691.1215 433.09686Q690.3715 432.3781 689.1684 432.3781Q687.9028 432.3781 687.13715 433.14374Q686.3715 433.90936 686.3715 435.2531L684.559 435.0656Q684.7465 433.05 685.94965 431.9875Q687.1684 430.925 689.2153 430.925Q691.26215 430.925 692.4653 432.0656Q693.6684 433.20624 693.6684 434.89374Q693.6684 435.7531 693.309 436.59686Q692.9653 437.425 692.1528 438.34686Q691.3403 439.2531 689.44965 440.8625Q687.8559 442.1906 687.4028 442.65936Q686.9653 443.1281 686.6684 443.6125L693.684 443.6125Z" fill-rule="nonzero"/><path fill="#00ff00" d="M181.0 31.2C181.0 30.647715 181.44771 30.2 182.0 30.2L192.0 30.2C192.55229 30.2 193.0 30.647715 193.0 31.2L193.0 41.2C193.0 41.752285 192.55229 42.2 192.0 42.2L182.0 42.2C181.44771 42.2 181.0 41.752285 181.0 41.2Z" fill-rule="nonzero"/><path fill="#1a1a1a" d="M202.60938 43.7L202.60938 27.95L208.51562 27.95Q210.32812 27.95 211.40625 28.434376Q212.5 28.903126 213.10938 29.903126Q213.73438 30.8875 213.73438 31.98125Q213.73438 32.996876 213.1875 33.8875Q212.64062 34.778126 211.53125 35.325Q212.96875 35.746876 213.73438 36.7625Q214.5 37.7625 214.5 39.1375Q214.5 40.246876 214.03125 41.2Q213.5625 42.1375 212.875 42.653126Q212.1875 43.16875 211.15625 43.434376Q210.125 43.7 208.60938 43.7L202.60938 43.7ZM204.70312 34.575L208.09375 34.575Q209.48438 34.575 210.09375 34.3875Q210.89062 34.153126 211.28125 33.60625Q211.6875 33.059376 211.6875 32.23125Q211.6875 31.45 211.3125 30.85625Q210.9375 30.246876 210.23438 30.028126Q209.54688 29.809376 207.84375 29.809376L204.70312 29.809376L204.70312 34.575ZM204.70312 41.840626L208.60938 41.840626Q209.625 41.840626 210.03125 41.7625Q210.75 41.6375 211.23438 41.340626Q211.71875 41.028126 212.03125 40.465626Q212.34375 39.8875 212.34375 39.1375Q212.34375 38.246876 211.89062 37.60625Q211.4375 36.95 210.64062 36.7Q209.84375 36.434376 208.34375 36.434376L204.70312 36.434376L204.70312 41.840626ZM217.70312 43.7L217.70312 27.95L223.64062 27.95Q225.20312 27.95 226.03125 28.10625Q227.1875 28.29375 227.96875 28.840626Q228.76562 29.3875 229.23438 30.371876Q229.71875 31.340626 229.71875 32.5125Q229.71875 34.5125 228.4375 35.903126Q227.15625 37.29375 223.82812 37.29375L219.78125 37.29375L219.78125 43.7L217.70312 43.7ZM219.78125 35.434376L223.85938 35.434376Q225.875 35.434376 226.71875 34.684376Q227.5625 33.934376 227.5625 32.575Q227.5625 31.575 227.0625 30.871876Q226.57812 30.16875 225.75 29.95Q225.23438 29.809376 223.8125 29.809376L219.78125 29.809376L219.78125 35.434376ZM239.89062 42.29375Q238.82812 43.2 237.82812 43.590626Q236.82812 43.965626 235.6875 43.965626Q233.8125 43.965626 232.79688 43.04375Q231.79688 42.121876 231.79688 40.684376Q231.79688 39.85625 232.17188 39.16875Q232.5625 38.465626 233.17188 38.059376Q233.79688 37.6375 234.5625 37.41875Q235.14062 37.2625 236.28125 37.121876Q238.625 36.840626 239.73438 36.465626Q239.75 36.059376 239.75 35.95Q239.75 34.778126 239.20312 34.29375Q238.45312 33.6375 237.0 33.6375Q235.625 33.6375 234.96875 34.121876Q234.32812 34.590626 234.01562 35.809376L232.125 35.54375Q232.39062 34.325 232.96875 33.590626Q233.5625 32.840626 234.67188 32.434376Q235.79688 32.028126 237.28125 32.028126Q238.73438 32.028126 239.64062 32.371876Q240.5625 32.715626 240.98438 33.246876Q241.42188 33.7625 241.59375 34.559376Q241.6875 35.059376 241.6875 36.340626L241.6875 38.91875Q241.6875 41.621876 241.8125 42.340626Q241.9375 43.04375 242.29688 43.7L240.28125 43.7Q239.98438 43.090626 239.89062 42.29375ZM239.73438 37.98125Q238.6875 38.403126 236.57812 38.7Q235.39062 38.871876 234.89062 39.090626Q234.39062 39.309376 234.125 39.73125Q233.85938 40.1375 233.85938 40.6375Q233.85938 41.41875 234.4375 41.934376Q235.03125 42.45 236.15625 42.45Q237.28125 42.45 238.14062 41.965626Q239.01562 41.465626 239.42188 40.621876Q239.73438 39.965626 239.73438 38.684376L239.73438 37.98125ZM244.42188 43.7L244.42188 32.29375L246.17188 32.29375L246.17188 34.028126Q246.82812 32.809376 247.39062 32.41875Q247.96875 32.028126 248.64062 32.028126Q249.625 32.028126 250.625 32.653126L249.96875 34.45Q249.25 34.028126 248.54688 34.028126Q247.90625 34.028126 247.40625 34.41875Q246.90625 34.79375 246.6875 35.465626Q246.35938 36.496876 246.35938 37.73125L246.35938 43.7L244.42188 43.7ZM250.67188 40.29375L252.59375 39.996876Q252.75 41.1375 253.48438 41.7625Q254.21875 42.371876 255.54688 42.371876Q256.875 42.371876 257.51562 41.825Q258.17188 41.278126 258.17188 40.559376Q258.17188 39.903126 257.59375 39.528126Q257.20312 39.2625 255.625 38.871876Q253.48438 38.325 252.65625 37.934376Q251.84375 37.54375 251.42188 36.85625Q251.0 36.153126 251.0 35.325Q251.0 34.559376 251.34375 33.91875Q251.70312 33.2625 252.29688 32.825Q252.75 32.496876 253.53125 32.2625Q254.3125 32.028126 255.20312 32.028126Q256.54688 32.028126 257.5625 32.41875Q258.57812 32.809376 259.0625 33.465626Q259.54688 34.121876 259.71875 35.23125L257.82812 35.496876Q257.70312 34.60625 257.07812 34.121876Q256.46875 33.621876 255.34375 33.621876Q254.0 33.621876 253.4375 34.059376Q252.875 34.496876 252.875 35.090626Q252.875 35.465626 253.10938 35.778126Q253.34375 36.090626 253.84375 36.29375Q254.14062 36.3875 255.54688 36.778126Q257.60938 37.325 258.42188 37.684376Q259.23438 38.028126 259.6875 38.7Q260.15625 39.35625 260.15625 40.340626Q260.15625 41.309376 259.59375 42.16875Q259.03125 43.028126 257.95312 43.496876Q256.89062 43.965626 255.54688 43.965626Q253.32812 43.965626 252.15625 43.04375Q251.0 42.10625 250.67188 40.29375ZM270.26562 40.028126L272.26562 40.278126Q271.78125 42.028126 270.5 42.996876Q269.23438 43.965626 267.23438 43.965626Q264.73438 43.965626 263.26562 42.41875Q261.8125 40.871876 261.8125 38.090626Q261.8125 35.215626 263.28125 33.621876Q264.76562 32.028126 267.14062 32.028126Q269.42188 32.028126 270.875 33.590626Q272.32812 35.153126 272.32812 37.98125Q272.32812 38.153126 272.3125 38.496876L263.79688 38.496876Q263.90625 40.371876 264.85938 41.371876Q265.82812 42.371876 267.25 42.371876Q268.3125 42.371876 269.0625 41.809376Q269.8125 41.246876 270.26562 40.028126ZM263.90625 36.903126L270.28125 36.903126Q270.15625 35.465626 269.54688 34.746876Q268.625 33.621876 267.15625 33.621876Q265.82812 33.621876 264.92188 34.5125Q264.01562 35.403126 263.90625 36.903126ZM274.42188 43.7L274.42188 32.29375L276.17188 32.29375L276.17188 34.028126Q276.82812 32.809376 277.39062 32.41875Q277.96875 32.028126 278.64062 32.028126Q279.625 32.028126 280.625 32.653126L279.96875 34.45Q279.25 34.028126 278.54688 34.028126Q277.90625 34.028126 277.40625 34.41875Q276.90625 34.79375 276.6875 35.465626Q276.35938 36.496876 276.35938 37.73125L276.35938 43.7L274.42188 43.7ZM287.0625 36.028126Q287.0625 32.10625 289.17188 29.8875Q291.28125 27.66875 294.60938 27.66875Q296.78125 27.66875 298.53125 28.715626Q300.28125 29.7625 301.20312 31.621876Q302.125 33.48125 302.125 35.840626Q302.125 38.246876 301.15625 40.1375Q300.1875 42.028126 298.40625 42.996876Q296.64062 43.965626 294.59375 43.965626Q292.375 43.965626 290.625 42.903126Q288.875 41.825 287.96875 39.965626Q287.0625 38.10625 287.0625 36.028126ZM289.21875 36.059376Q289.21875 38.903126 290.75 40.54375Q292.28125 42.184376 294.57812 42.184376Q296.9375 42.184376 298.45312 40.528126Q299.96875 38.871876 299.96875 35.840626Q299.96875 33.91875 299.3125 32.48125Q298.67188 31.04375 297.42188 30.2625Q296.17188 29.465626 294.60938 29.465626Q292.40625 29.465626 290.8125 30.996876Q289.21875 32.5125 289.21875 36.059376ZM304.60938 43.7L304.60938 27.95L306.70312 27.95L306.70312 41.840626L314.45312 41.840626L314.45312 43.7L304.60938 43.7ZM316.70312 43.7L316.70312 27.95L322.125 27.95Q323.95312 27.95 324.92188 28.184376Q326.28125 28.48125 327.23438 29.309376Q328.48438 30.35625 329.09375 31.996876Q329.71875 33.6375 329.71875 35.746876Q329.71875 37.528126 329.29688 38.91875Q328.875 40.309376 328.21875 41.215626Q327.5625 42.121876 326.78125 42.653126Q326.01562 43.16875 324.90625 43.434376Q323.8125 43.7 322.375 43.7L316.70312 43.7ZM318.78125 41.840626L322.14062 41.840626Q323.70312 41.840626 324.57812 41.559376Q325.46875 41.2625 326.0 40.73125Q326.73438 39.996876 327.14062 38.746876Q327.5625 37.496876 327.5625 35.7Q327.5625 33.23125 326.75 31.91875Q325.95312 30.590626 324.78125 30.1375Q323.95312 29.809376 322.09375 29.809376L318.78125 29.809376L318.78125 41.840626Z" fill-rule="nonzero"/><path fill="#ff00ff" d="M347.0 31.2C347.0 30.647715 347.44772 30.2 348.0 30.2L358.0 30.2C358.55228 30.2 359.0 30.647715 359.0 31.2L359.0 41.2C359.0 41.752285 358.55228 42.2 358.0 42.2L348.0 42.2C347.44772 42.2 347.0 41.752285 347.0 41.2Z" fill-rule="nonzero"/><path fill="#1a1a1a" d="M379.9375 38.184376L382.01562 38.7Q381.35938 41.278126 379.65625 42.621876Q377.95312 43.965626 375.5 43.965626Q372.95312 43.965626 371.35938 42.934376Q369.76562 41.8875 368.92188 39.934376Q368.09375 37.965626 368.09375 35.7Q368.09375 33.246876 369.03125 31.41875Q369.96875 29.590626 371.70312 28.6375Q373.45312 27.684376 375.53125 27.684376Q377.89062 27.684376 379.5 28.8875Q381.10938 30.090626 381.75 32.2625L379.70312 32.746876Q379.15625 31.028126 378.10938 30.246876Q377.0625 29.465626 375.48438 29.465626Q373.67188 29.465626 372.45312 30.340626Q371.23438 31.2 370.73438 32.66875Q370.25 34.1375 370.25 35.7Q370.25 37.7 370.82812 39.2Q371.42188 40.7 372.65625 41.45Q373.89062 42.184376 375.32812 42.184376Q377.07812 42.184376 378.28125 41.184376Q379.5 40.16875 379.9375 38.184376ZM388.51562 41.153126L388.51562 36.840626L384.21875 36.840626L384.21875 35.028126L388.51562 35.028126L388.51562 30.746876L390.34375 30.746876L390.34375 35.028126L394.625 35.028126L394.625 36.840626L390.34375 36.840626L390.34375 41.153126L388.51562 41.153126ZM401.51562 41.153126L401.51562 36.840626L397.21875 36.840626L397.21875 35.028126L401.51562 35.028126L401.51562 30.746876L403.34375 30.746876L403.34375 35.028126L407.625 35.028126L407.625 36.840626L403.34375 36.840626L403.34375 41.153126L401.51562 41.153126Z" fill-rule="nonzero"/><path fill="#0000ff" d="M425.0 31.2C425.0 30.647715 425.44772 30.2 426.0 30.2L436.0 30.2C436.55228 30.2 437.0 30.647715 437.0 31.2L437.0 41.2C437.0 41.752285 436.55228 42.2 436.0 42.2L426.0 42.2C425.44772 42.2 425.0 41.752285 425.0 41.2Z" fill-rule="nonzero"/><path fill="#1a1a1a" d="M446.60938 43.7L446.60938 27.95L452.51562 27.95Q454.32812 27.95 455.40625 28.434376Q456.5 28.903126 457.10938 29.903126Q457.73438 30.8875 457.73438 31.98125Q457.73438 32.996876 457.1875 33.8875Q456.64062 34.778126 455.53125 35.325Q456.96875 35.746876 457.73438 36.7625Q458.5 37.7625 458.5 39.1375Q458.5 40.246876 458.03125 41.2Q457.5625 42.1375 456.875 42.653126Q456.1875 43.16875 455.15625 43.434376Q454.125 43.7 452.60938 43.7L446.60938 43.7ZM448.70312 34.575L452.09375 34.575Q453.48438 34.575 454.09375 34.3875Q454.89062 34.153126 455.28125 33.60625Q455.6875 33.059376 455.6875 32.23125Q455.6875 31.45 455.3125 30.85625Q454.9375 30.246876 454.23438 30.028126Q453.54688 29.809376 451.84375 29.809376L448.70312 29.809376L448.70312 34.575ZM448.70312 41.840626L452.60938 41.840626Q453.625 41.840626 454.03125 41.7625Q454.75 41.6375 455.23438 41.340626Q455.71875 41.028126 456.03125 40.465626Q456.34375 39.8875 456.34375 39.1375Q456.34375 38.246876 455.89062 37.60625Q455.4375 36.95 454.64062 36.7Q453.84375 36.434376 452.34375 36.434376L448.70312 36.434376L448.70312 41.840626ZM461.70312 43.7L461.70312 27.95L467.64062 27.95Q469.20312 27.95 470.03125 28.10625Q471.1875 28.29375 471.96875 28.840626Q472.76562 29.3875 473.23438 30.371876Q473.71875 31.340626 473.71875 32.5125Q473.71875 34.5125 472.4375 35.903126Q471.15625 37.29375 467.82812 37.29375L463.78125 37.29375L463.78125 43.7L461.70312 43.7ZM463.78125 35.434376L467.85938 35.434376Q469.875 35.434376 470.71875 34.684376Q471.5625 33.934376 471.5625 32.575Q471.5625 31.575 471.0625 30.871876Q470.57812 30.16875 469.75 29.95Q469.23438 29.809376 467.8125 29.809376L463.78125 29.809376L463.78125 35.434376ZM483.89062 42.29375Q482.82812 43.2 481.82812 43.590626Q480.82812 43.965626 479.6875 43.965626Q477.8125 43.965626 476.79688 43.04375Q475.79688 42.121876 475.79688 40.684376Q475.79688 39.85625 476.17188 39.16875Q476.5625 38.465626 477.17188 38.059376Q477.79688 37.6375 478.5625 37.41875Q479.14062 37.2625 480.28125 37.121876Q482.625 36.840626 483.73438 36.465626Q483.75 36.059376 483.75 35.95Q483.75 34.778126 483.20312 34.29375Q482.45312 33.6375 481.0 33.6375Q479.625 33.6375 478.96875 34.121876Q478.32812 34.590626 478.01562 35.809376L476.125 35.54375Q476.39062 34.325 476.96875 33.590626Q477.5625 32.840626 478.67188 32.434376Q479.79688 32.028126 481.28125 32.028126Q482.73438 32.028126 483.64062 32.371876Q484.5625 32.715626 484.98438 33.246876Q485.42188 33.7625 485.59375 34.559376Q485.6875 35.059376 485.6875 36.340626L485.6875 38.91875Q485.6875 41.621876 485.8125 42.340626Q485.9375 43.04375 486.29688 43.7L484.28125 43.7Q483.98438 43.090626 483.89062 42.29375ZM483.73438 37.98125Q482.6875 38.403126 480.57812 38.7Q479.39062 38.871876 478.89062 39.090626Q478.39062 39.309376 478.125 39.73125Q477.85938 40.1375 477.85938 40.6375Q477.85938 41.41875 478.4375 41.934376Q479.03125 42.45 480.15625 42.45Q481.28125 42.45 482.14062 41.965626Q483.01562 41.465626 483.42188 40.621876Q483.73438 39.965626 483.73438 38.684376L483.73438 37.98125ZM488.42188 43.7L488.42188 32.29375L490.17188 32.29375L490.17188 34.028126Q490.82812 32.809376 491.39062 32.41875Q491.96875 32.028126 492.64062 32.028126Q493.625 32.028126 494.625 32.653126L493.96875 34.45Q493.25 34.028126 492.54688 34.028126Q491.90625 34.028126 491.40625 34.41875Q490.90625 34.79375 490.6875 35.465626Q490.35938 36.496876 490.35938 37.73125L490.35938 43.7L488.42188 43.7ZM494.67188 40.29375L496.59375 39.996876Q496.75 41.1375 497.48438 41.7625Q498.21875 42.371876 499.54688 42.371876Q500.875 42.371876 501.51562 41.825Q502.17188 41.278126 502.17188 40.559376Q502.17188 39.903126 501.59375 39.528126Q501.20312 39.2625 499.625 38.871876Q497.48438 38.325 496.65625 37.934376Q495.84375 37.54375 495.42188 36.85625Q495.0 36.153126 495.0 35.325Q495.0 34.559376 495.34375 33.91875Q495.70312 33.2625 496.29688 32.825Q496.75 32.496876 497.53125 32.2625Q498.3125 32.028126 499.20312 32.028126Q500.54688 32.028126 501.5625 32.41875Q502.57812 32.809376 503.0625 33.465626Q503.54688 34.121876 503.71875 35.23125L501.82812 35.496876Q501.70312 34.60625 501.07812 34.121876Q500.46875 33.621876 499.34375 33.621876Q498.0 33.621876 497.4375 34.059376Q496.875 34.496876 496.875 35.090626Q496.875 35.465626 497.10938 35.778126Q497.34375 36.090626 497.84375 36.29375Q498.14062 36.3875 499.54688 36.778126Q501.60938 37.325 502.42188 37.684376Q503.23438 38.028126 503.6875 38.7Q504.15625 39.35625 504.15625 40.340626Q504.15625 41.309376 503.59375 42.16875Q503.03125 43.028126 501.95312 43.496876Q500.89062 43.965626 499.54688 43.965626Q497.32812 43.965626 496.15625 43.04375Q495.0 42.10625 494.67188 40.29375ZM514.2656 40.028126L516.2656 40.278126Q515.78125 42.028126 514.5 42.996876Q513.2344 43.965626 511.23438 43.965626Q508.73438 43.965626 507.26562 42.41875Q505.8125 40.871876 505.8125 38.090626Q505.8125 35.215626 507.28125 33.621876Q508.76562 32.028126 511.14062 32.028126Q513.4219 32.028126 514.875 33.590626Q516.3281 35.153126 516.3281 37.98125Q516.3281 38.153126 516.3125 38.496876L507.79688 38.496876Q507.90625 40.371876 508.85938 41.371876Q509.82812 42.371876 511.25 42.371876Q512.3125 42.371876 513.0625 41.809376Q513.8125 41.246876 514.2656 40.028126ZM507.90625 36.903126L514.28125 36.903126Q514.15625 35.465626 513.5469 34.746876Q512.625 33.621876 511.15625 33.621876Q509.82812 33.621876 508.92188 34.5125Q508.01562 35.403126 507.90625 36.903126ZM518.4219 43.7L518.4219 32.29375L520.1719 32.29375L520.1719 34.028126Q520.8281 32.809376 521.3906 32.41875Q521.96875 32.028126 522.6406 32.028126Q523.625 32.028126 524.625 32.653126L523.96875 34.45Q523.25 34.028126 522.5469 34.028126Q521.90625 34.028126 521.40625 34.41875Q520.90625 34.79375 520.6875 35.465626Q520.3594 36.496876 520.3594 37.73125L520.3594 43.7L518.4219 43.7ZM529.96875 43.7L536.0156 27.95L538.2656 27.95L544.7031 43.7L542.3281 43.7L540.5 38.934376L533.90625 38.934376L532.1875 43.7L529.96875 43.7ZM534.5156 37.23125L539.84375 37.23125L538.2031 32.871876Q537.4531 30.8875 537.09375 29.60625Q536.7969 31.121876 536.2344 32.60625L534.5156 37.23125ZM551.2031 43.7L545.09375 27.95L547.3594 27.95L551.4531 39.3875Q551.9375 40.7625 552.2656 41.965626Q552.6406 40.684376 553.125 39.3875L557.375 27.95L559.5 27.95L553.34375 43.7L551.2031 43.7ZM560.09375 43.7L566.1875 35.496876L560.8125 27.95L563.2969 27.95L566.15625 31.996876Q567.0469 33.246876 567.4219 33.91875Q567.9531 33.059376 568.6719 32.1375L571.84375 27.95L574.1094 27.95L568.5781 35.371876L574.53125 43.7L571.9531 43.7L568.0 38.075Q567.65625 37.590626 567.3125 37.028126Q566.78125 37.8875 566.5469 38.215626L562.59375 43.7L560.09375 43.7ZM586.0781 41.840626L586.0781 43.7L575.6719 43.7Q575.6406 42.996876 575.8906 42.35625Q576.2969 41.29375 577.1719 40.2625Q578.0469 39.23125 579.6875 37.871876Q582.2656 35.778126 583.15625 34.54375Q584.0625 33.309376 584.0625 32.215626Q584.0625 31.059376 583.2344 30.278126Q582.4219 29.48125 581.1094 29.48125Q579.7031 29.48125 578.8594 30.325Q578.03125 31.16875 578.0156 32.653126L576.03125 32.434376Q576.2344 30.215626 577.5625 29.059376Q578.90625 27.8875 581.1406 27.8875Q583.40625 27.8875 584.71875 29.153126Q586.0469 30.403126 586.0469 32.2625Q586.0469 33.2 585.65625 34.121876Q585.28125 35.028126 584.375 36.04375Q583.4844 37.04375 581.40625 38.809376Q579.65625 40.278126 579.15625 40.79375Q578.6719 41.309376 578.3594 41.840626L586.0781 41.840626Z" fill-rule="nonzero"/></svg>