<svg version="1.1" viewBox="0.0 0.0 768.0 474.0" fill="none" stroke="none" stroke-linecap="square" stroke-miterlimit="10" width="768" height="474" xmlns:xlink="http://www.w3.org/1999/xlink" xmlns="http://www.w3.org/2000/svg"><path fill="#ffffff" d="M0 0L768.0 0L768.0 474.0L0 474.0L0 0Z" fill-rule="nonzero"/><path stroke="#333333" stroke-width="1.0" stroke-linecap="butt" d="M120.5 416.5L744.5 416.5" fill-rule="nonzero"/><path stroke="#000000" stroke-width="1.0" stroke-linecap="butt" d="M120.5 382.5L744.5 382.5" fill-rule="nonzero"/><path stroke="#000000" stroke-width="1.0" stroke-linecap="butt" d="M120.5 348.5L744.5 348.5" fill-rule="nonzero"/><path stroke="#000000" stroke-width="1.0" stroke-linecap="butt" d="M120.5 313.5L744.5 313.5" fill-rule="nonzero"/><path stroke="#000000" stroke-width="1.0" stroke-linecap="butt" d="M120.5 279.5L744.5 279.5" fill-rule="nonzero"/><path stroke="#000000" stroke-width="1.0" stroke-linecap="butt" d="M120.5 245.5L744.5 245.5" fill-rule="nonzero"/><path stroke="#000000" stroke-width="1.0" stroke-linecap="butt" d="M120.5 211.5L744.5 211.5" fill-rule="nonzero"/><path stroke="#000000" stroke-width="1.0" stroke-linecap="butt" d="M120.5 177.5L744.5 177.5" fill-rule="nonzero"/><path stroke="#000000" stroke-width="1.0" stroke-linecap="butt" d="M120.5 143.5L744.5 143.5" fill-rule="nonzero"/><path stroke="#000000" stroke-width="1.0" stroke-linecap="butt" d="M120.5 109.5L744.5 109.5" fill-rule="nonzero"/><path stroke="#000000" stroke-width="1.0" stroke-linecap="butt" d="M120.5 75.5L744.5 75.5" fill-rule="nonzero"/><clipPath id="id_0"><path d="M120.7 75.0L744.3 75.0L744.3 416.3L120.7 416.3L120.7 75.0Z" clip-rule="nonzero"/></clipPath><path stroke="#000000" stroke-width="2.0" stroke-linecap="butt" stroke-opacity="0.0" clip-path="url(#id_0)" d="M186.0 416.0L163.0 416.0L163.0 77.0C163.0 75.89543 163.89543 75.0 165.0 75.0L184.0 75.0C185.10457 75.0 186.0 75.89543 186.0 77.0Z" fill-rule="nonzero"/><path fill="#00ff00" clip-path="url(#id_0)" d="M186.0 416.0L163.0 416.0L163.0 77.0C163.0 75.89543 163.89543 75.0 165.0 75.0L184.0 75.0C185.10457 75.0 186.0 75.89543 186.0 77.0Z" fill-rule="nonzero"/><path stroke="#000000" stroke-width="2.0" stroke-linecap="butt" stroke-opacity="0.0" clip-path="url(#id_0)" d="M303.0 416.0L280.0 416.0L280.0 77.0C280.0 75.89543 280.89542 75.0 282.0 75.0L301.0 75.0C302.10458 75.0 303.0 75.89543 303.0 77.0Z" fill-rule="nonzero"/><path fill="#00ff00" clip-path="url(#id_0)" d="M303.0 416.0L280.0 416.0L280.0 77.0C280.0 75.89543 280.89542 75.0 282.0 75.0L301.0 75.0C302.10458 75.0 303.0 75.89543 303.0 77.0Z" fill-rule="nonzero"/><path stroke="#000000" stroke-width="2.0" stroke-linecap="butt" stroke-opacity="0.0" clip-path="url(#id_0)" d="M420.0 416.0L397.0 416.0L397.0 77.0C397.0 75.89543 397.89542 75.0 399.0 75.0L418.0 75.0C419.10458 75.0 420.0 75.89543 420.0 77.0Z" fill-rule="nonzero"/><path fill="#00ff00" clip-path="url(#id_0)" d="M420.0 416.0L397.0 416.0L397.0 77.0C397.0 75.89543 397.89542 75.0 399.0 75.0L418.0 75.0C419.10458 75.0 420.0 75.89543 420.0 77.0Z" fill-rule="nonzero"/><path stroke="#000000" stroke-width="2.0" stroke-linecap="butt" stroke-opacity="0.0" clip-path="url(#id_0)" d="M536.0 416.0L513.0 416.0L513.0 77.0C513.0 75.89543 513.89545 75.0 515.0 75.0L534.0 75.0C535.10455 75.0 536.0 75.89543 536.0 77.0Z" fill-rule="nonzero"/><path fill="#00ff00" clip-path="url(#id_0)" d="M536.0 416.0L513.0 416.0L513.0 77.0C513.0 75.89543 513.89545 75.0 515.0 75.0L534.0 75.0C535.10455 75.0 536.0 75.89543 536.0 77.0Z" fill-rule="nonzero"/><path stroke="#000000" stroke-width="2.0" stroke-linecap="butt" stroke-opacity="0.0" clip-path="url(#id_0)" d="M653.0 416.0L630.0 416.0L630.0 77.0C630.0 75.89543 630.89545 75.0 632.0 75.0L651.0 75.0C652.10455 75.0 653.0 75.89543 653.0 77.0Z" fill-rule="nonzero"/><path fill="#00ff00" clip-path="url(#id_0)" d="M653.0 416.0L630.0 416.0L630.0 77.0C630.0 75.89543 630.89545 75.0 632.0 75.0L651.0 75.0C652.10455 75.0 653.0 75.89543 653.0 77.0Z" fill-rule="nonzero"/><path stroke="#000000" stroke-width="2.0" stroke-linecap="butt" stroke-opacity="0.0" clip-path="url(#id_0)" d="M211.0 416.0L188.0 416.0L188.0 91.0C188.0 89.89543 188.89543 89.0 190.0 89.0L209.0 89.0C210.10457 89.0 211.0 89.89543 211.0 91.0Z" fill-rule="nonzero"/><path fill="#ff00ff" clip-path="url(#id_0)" d="M211.0 416.0L188.0 416.0L188.0 91.0C188.0 89.89543 188.89543 89.0 190.0 89.0L209.0 89.0C210.10457 89.0 211.0 89.89543 211.0 91.0Z" fill-rule="nonzero"/><path stroke="#000000" stroke-width="2.0" stroke-linecap="butt" stroke-opacity="0.0" clip-path="url(#id_0)" d="M328.0 416.0L305.0 416.0L305.0 95.0C305.0 93.89543 305.89542 93.0 307.0 93.0L326.0 93.0C327.10458 93.0 328.0 93.89543 328.0 95.0Z" fill-rule="nonzero"/><path fill="#ff00ff" clip-path="url(#id_0)" d="M328.0 416.0L305.0 416.0L305.0 95.0C305.0 93.89543 305.89542 93.0 307.0 93.0L326.0 93.0C327.10458 93.0 328.0 93.89543 328.0 95.0Z" fill-rule="nonzero"/><path stroke="#000000" stroke-width="2.0" stroke-linecap="butt" stroke-opacity="0.0" clip-path="url(#id_0)" d="M445.0 416.0L422.0 416.0L422.0 97.0C422.0 95.89543 422.89542 95.0 424.0 95.0L443.0 95.0C444.10458 95.0 445.0 95.89543 445.0 97.0Z" fill-rule="nonzero"/><path fill="#ff00ff" clip-path="url(#id_0)" d="M445.0 416.0L422.0 416.0L422.0 97.0C422.0 95.89543 422.89542 95.0 424.0 95.0L443.0 95.0C444.10458 95.0 445.0 95.89543 445.0 97.0Z" fill-rule="nonzero"/><path stroke="#000000" stroke-width="2.0" stroke-linecap="butt" stroke-opacity="0.0" clip-path="url(#id_0)" d="M561.0 416.0L538.0 416.0L538.0 101.0C538.0 99.89543 538.89545 99.0 540.0 99.0L559.0 99.0C560.10455 99.0 561.0 99.89543 561.0 101.0Z" fill-rule="nonzero"/><path fill="#ff00ff" clip-path="url(#id_0)" d="M561.0 416.0L538.0 416.0L538.0 101.0C538.0 99.89543 538.89545 99.0 540.0 99.0L559.0 99.0C560.10455 99.0 561.0 99.89543 561.0 101.0Z" fill-rule="nonzero"/><path stroke="#000000" stroke-width="2.0" stroke-linecap="butt" stroke-opacity="0.0" clip-path="url(#id_0)" d="M678.0 416.0L655.0 416.0L655.0 101.0C655.0 99.89543 655.89545 99.0 657.0 99.0L676.0 99.0C677.10455 99.0 678.0 99.89543 678.0 101.0Z" fill-rule="nonzero"/><path fill="#ff00ff" clip-path="url(#id_0)" d="M678.0 416.0L655.0 416.0L655.0 101.0C655.0 99.89543 655.89545 99.0 657.0 99.0L676.0 99.0C677.10455 99.0 678.0 99.89543 678.0 101.0Z" fill-rule="nonzero"/><path stroke="#000000" stroke-width="2.0" stroke-linecap="butt" stroke-opacity="0.0" clip-path="url(#id_0)" d="M236.0 416.0L213.0 416.0L213.0 216.0C213.0 214.89543 213.89543 214.0 215.0 214.0L234.0 214.0C235.10457 214.0 236.0 214.89543 236.0 216.0Z" fill-rule="nonzero"/><path fill="#0000ff" clip-path="url(#id_0)" d="M236.0 416.0L213.0 416.0L213.0 216.0C213.0 214.89543 213.89543 214.0 215.0 214.0L234.0 214.0C235.10457 214.0 236.0 214.89543 236.0 216.0Z" fill-rule="nonzero"/><path stroke="#000000" stroke-width="2.0" stroke-linecap="butt" stroke-opacity="0.0" clip-path="url(#id_0)" d="M353.0 416.0L330.0 416.0L330.0 229.0C330.0 227.89543 330.89542 227.0 332.0 227.0L351.0 227.0C352.10458 227.0 353.0 227.89543 353.0 229.0Z" fill-rule="nonzero"/><path fill="#0000ff" clip-path="url(#id_0)" d="M353.0 416.0L330.0 416.0L330.0 229.0C330.0 227.89543 330.89542 227.0 332.0 227.0L351.0 227.0C352.10458 227.0 353.0 227.89543 353.0 229.0Z" fill-rule="nonzero"/><path stroke="#000000" stroke-width="2.0" stroke-linecap="butt" stroke-opacity="0.0" clip-path="url(#id_0)" d="M470.0 416.0L447.0 416.0L447.0 231.0C447.0 229.89543 447.89542 229.0 449.0 229.0L468.0 229.0C469.10458 229.0 470.0 229.89543 470.0 231.0Z" fill-rule="nonzero"/><path fill="#0000ff" clip-path="url(#id_0)" d="M470.0 416.0L447.0 416.0L447.0 231.0C447.0 229.89543 447.89542 229.0 449.0 229.0L468.0 229.0C469.10458 229.0 470.0 229.89543 470.0 231.0Z" fill-rule="nonzero"/><path stroke="#000000" stroke-width="2.0" stroke-linecap="butt" stroke-opacity="0.0" clip-path="url(#id_0)" d="M586.0 416.0L563.0 416.0L563.0 232.0C563.0 230.89543 563.89545 230.0 565.0 230.0L584.0 230.0C585.10455 230.0 586.0 230.89543 586.0 232.0Z" fill-rule="nonzero"/><path fill="#0000ff" clip-path="url(#id_0)" d="M586.0 416.0L563.0 416.0L563.0 232.0C563.0 230.89543 563.89545 230.0 565.0 230.0L584.0 230.0C585.10455 230.0 586.0 230.89543 586.0 232.0Z" fill-rule="nonzero"/><path stroke="#000000" stroke-width="2.0" stroke-linecap="butt" stroke-opacity="0.0" clip-path="url(#id_0)" d="M703.0 416.0L680.0 416.0L680.0 233.0C680.0 231.89543 680.89545 231.0 682.0 231.0L701.0 231.0C702.10455 231.0 703.0 231.89543 703.0 233.0Z" fill-rule="nonzero"/><path fill="#0000ff" clip-path="url(#id_0)" d="M703.0 416.0L680.0 416.0L680.0 233.0C680.0 231.89543 680.89545 231.0 682.0 231.0L701.0 231.0C702.10455 231.0 703.0 231.89543 703.0 233.0Z" fill-rule="nonzero"/><path fill="#000000" d="M43.69999 281.66562L27.949987 281.66562L27.949987 274.68124Q27.949987 272.5875 28.371862 271.49374Q28.793737 270.38437 29.871862 269.74374Q30.949987 269.0875 32.246864 269.0875Q33.91874 269.0875 35.07499 270.16562Q36.215614 271.24374 36.528114 273.50937Q36.934364 272.69687 37.32499 272.25937Q38.153114 271.35312 39.41874 270.525L43.69999 267.79062L43.69999 270.41562L40.41874 272.49374Q39.01249 273.41562 38.26249 274.00937Q37.496864 274.5875 37.19999 275.05624Q36.903114 275.525 36.778114 276.00937Q36.69999 276.36874 36.69999 277.16562L36.69999 279.5875L43.69999 279.5875L43.69999 281.66562ZM34.903114 279.5875L34.903114 275.10312Q34.903114 273.68124 34.60624 272.88437Q34.309364 272.07187 33.66874 271.65Q33.01249 271.22812 32.246864 271.22812Q31.137487 271.22812 30.418737 272.04062Q29.684362 272.85312 29.684362 274.60312L29.684362 279.5875L34.903114 279.5875ZM42.29374 258.50937Q43.19999 259.57187 43.590614 260.57187Q43.965614 261.57187 43.965614 262.7125Q43.965614 264.5875 43.04374 265.60312Q42.121864 266.60312 40.684364 266.60312Q39.85624 266.60312 39.16874 266.22812Q38.465614 265.8375 38.059364 265.22812Q37.63749 264.60312 37.41874 263.8375Q37.26249 263.25937 37.121864 262.11874Q36.840614 259.775 36.465614 258.66562Q36.059364 258.65 35.94999 258.65Q34.778114 258.65 34.29374 259.19687Q33.63749 259.94687 33.63749 261.4Q33.63749 262.775 34.121864 263.43124Q34.590614 264.07187 35.809364 264.38437L35.54374 266.275Q34.32499 266.00937 33.590614 265.43124Q32.840614 264.8375 32.434364 263.72812Q32.028114 262.60312 32.028114 261.11874Q32.028114 259.66562 32.371864 258.75937Q32.715614 257.8375 33.246864 257.41562Q33.76249 256.97812 34.559364 256.80624Q35.059364 256.7125 36.340614 256.7125L38.91874 256.7125Q41.621864 256.7125 42.340614 256.5875Q43.04374 256.4625 43.69999 256.10312L43.69999 258.11874Q43.090614 258.41562 42.29374 258.50937ZM37.98124 258.66562Q38.403114 259.7125 38.69999 261.82187Q38.871864 263.00937 39.090614 263.50937Q39.309364 264.00937 39.73124 264.275Q40.13749 264.54062 40.63749 264.54062Q41.41874 264.54062 41.934364 263.9625Q42.44999 263.36874 42.44999 262.24374Q42.44999 261.11874 41.965614 260.25937Q41.465614 259.38437 40.621864 258.97812Q39.965614 258.66562 38.684364 258.66562L37.98124 258.66562ZM41.965614 249.72812L43.684364 249.44687Q43.85624 250.25937 43.85624 250.91562Q43.85624 251.9625 43.528114 252.54062Q43.184364 253.11874 42.653114 253.35312Q42.10624 253.5875 40.35624 253.5875L33.79374 253.5875L33.79374 255.00937L32.29374 255.00937L32.29374 253.5875L29.465612 253.5875L28.309362 251.66562L32.29374 251.66562L32.29374 249.72812L33.79374 249.72812L33.79374 251.66562L40.465614 251.66562Q41.29374 251.66562 41.528114 251.57187Q41.76249 251.4625 41.903114 251.24374Q42.04374 251.00937 42.04374 250.57187Q42.04374 250.25937 41.965614 249.72812ZM30.168737 247.93124L27.949987 247.93124L27.949987 246.00937L30.168737 246.00937L30.168737 247.93124ZM43.69999 247.93124L32.29374 247.93124L32.29374 246.00937L43.69999 246.00937L43.69999 247.93124ZM37.996864 243.66562Q34.82499 243.66562 33.29374 241.9Q32.028114 240.43124 32.028114 238.32187Q32.028114 235.9625 33.57499 234.47812Q35.121864 232.97812 37.840614 232.97812Q40.04374 232.97812 41.309364 233.65Q42.559364 234.30624 43.26249 235.57187Q43.965614 236.82187 43.965614 238.32187Q43.965614 240.7125 42.434364 242.19687Q40.88749 243.66562 37.996864 243.66562ZM37.996864 241.68124Q40.184364 241.68124 41.278114 240.72812Q42.371864 239.775 42.371864 238.32187Q42.371864 236.88437 41.278114 235.93124Q40.16874 234.9625 37.934364 234.9625Q35.809364 234.9625 34.73124 235.93124Q33.63749 236.88437 33.63749 238.32187Q33.63749 239.775 34.73124 240.72812Q35.809364 241.68124 37.996864 241.68124Z" fill-rule="nonzero"/><path fill="#000000" d="M87.45 416.4406Q87.45 414.15936 87.91875 412.76874Q88.3875 411.3781 89.30937 410.6281Q90.24687 409.8625 91.65312 409.8625Q92.68437 409.8625 93.46562 410.28436Q94.24687 410.6906 94.74687 411.4875Q95.2625 412.26874 95.55937 413.40936Q95.85625 414.53436 95.85625 416.4406Q95.85625 418.70624 95.3875 420.1125Q94.91875 421.5031 93.98125 422.26874Q93.05937 423.01874 91.65312 423.01874Q89.77812 423.01874 88.71562 421.6906Q87.45 420.08124 87.45 416.4406ZM89.075 416.4406Q89.075 419.6125 89.80937 420.675Q90.55937 421.72186 91.65312 421.72186Q92.73125 421.72186 93.48125 420.675Q94.23125 419.6125 94.23125 416.4406Q94.23125 413.26874 93.48125 412.22186Q92.73125 411.175 91.6375 411.175Q90.54375 411.175 89.8875 412.09686Q89.075 413.26874 89.075 416.4406ZM98.29375 422.8L98.29375 421.0031L100.10625 421.0031L100.10625 422.8Q100.10625 423.8 99.74687 424.40936Q99.40312 425.01874 98.6375 425.34686L98.2 424.675Q98.7 424.45624 98.93437 424.01874Q99.16875 423.59686 99.2 422.8L98.29375 422.8ZM102.45 416.4406Q102.45 414.15936 102.91875 412.76874Q103.3875 411.3781 104.30937 410.6281Q105.24687 409.8625 106.65312 409.8625Q107.68437 409.8625 108.46562 410.28436Q109.24687 410.6906 109.74687 411.4875Q110.2625 412.26874 110.55937 413.40936Q110.85625 414.53436 110.85625 416.4406Q110.85625 418.70624 110.3875 420.1125Q109.91875 421.5031 108.98125 422.26874Q108.05937 423.01874 106.65312 423.01874Q104.77812 423.01874 103.71562 421.6906Q102.45 420.08124 102.45 416.4406ZM104.075 416.4406Q104.075 419.6125 104.80937 420.675Q105.55937 421.72186 106.65312 421.72186Q107.73125 421.72186 108.48125 420.675Q109.23125 419.6125 109.23125 416.4406Q109.23125 413.26874 108.48125 412.22186Q107.73125 411.175 106.6375 411.175Q105.54375 411.175 104.8875 412.09686Q104.075 413.26874 104.075 416.4406Z" fill-rule="nonzero"/><path fill="#000000" d="M87.45 382.31064Q87.45 380.0294 87.91875 378.63876Q88.3875 377.24814 89.30937 376.49814Q90.24687 375.7325 91.65312 375.7325Q92.68437 375.7325 93.46562 376.1544Q94.24687 376.56064 94.74687 377.3575Q95.2625 378.13876 95.55937 379.2794Q95.85625 380.4044 95.85625 382.31064Q95.85625 384.57626 95.3875 385.9825Q94.91875 387.37314 93.98125 388.13876Q93.05937 388.88876 91.65312 388.88876Q89.77812 388.88876 88.71562 387.56064Q87.45 385.95126 87.45 382.31064ZM89.075 382.31064Q89.075 385.4825 89.80937 386.545Q90.55937 387.5919 91.65312 387.5919Q92.73125 387.5919 93.48125 386.545Q94.23125 385.4825 94.23125 382.31064Q94.23125 379.13876 93.48125 378.0919Q92.73125 377.045 91.6375 377.045Q90.54375 377.045 89.8875 377.9669Q89.075 379.13876 89.075 382.31064ZM98.29375 388.67L98.29375 386.87314L100.10625 386.87314L100.10625 388.67Q100.10625 389.67 99.74687 390.2794Q99.40312 390.88876 98.6375 391.2169L98.2 390.545Q98.7 390.32626 98.93437 389.88876Q99.16875 389.4669 99.2 388.67L98.29375 388.67ZM108.40312 388.67L106.825 388.67L106.825 378.5919Q106.24687 379.13876 105.325 379.68564Q104.40312 380.2169 103.65312 380.49814L103.65312 378.9669Q104.98125 378.3419 105.98125 377.45126Q106.98125 376.56064 107.3875 375.7325L108.40312 375.7325L108.40312 388.67Z" fill-rule="nonzero"/><path fill="#000000" d="M87.45 348.18063Q87.45 345.89938 87.91875 344.50876Q88.3875 343.11813 89.30937 342.36813Q90.24687 341.6025 91.65312 341.6025Q92.68437 341.6025 93.46562 342.02438Q94.24687 342.43063 94.74687 343.2275Q95.2625 344.00876 95.55937 345.14938Q95.85625 346.27438 95.85625 348.18063Q95.85625 350.44626 95.3875 351.8525Q94.91875 353.24313 93.98125 354.00876Q93.05937 354.75876 91.65312 354.75876Q89.77812 354.75876 88.71562 353.43063Q87.45 351.82126 87.45 348.18063ZM89.075 348.18063Q89.075 351.3525 89.80937 352.415Q90.55937 353.46188 91.65312 353.46188Q92.73125 353.46188 93.48125 352.415Q94.23125 351.3525 94.23125 348.18063Q94.23125 345.00876 93.48125 343.96188Q92.73125 342.915 91.6375 342.915Q90.54375 342.915 89.8875 343.83688Q89.075 345.00876 89.075 348.18063ZM98.29375 354.54L98.29375 352.74313L100.10625 352.74313L100.10625 354.54Q100.10625 355.54 99.74687 356.14938Q99.40312 356.75876 98.6375 357.08688L98.2 356.415Q98.7 356.19626 98.93437 355.75876Q99.16875 355.33688 99.2 354.54L98.29375 354.54ZM110.7625 353.02438L110.7625 354.54L102.24687 354.54Q102.23125 353.96188 102.43437 353.44626Q102.7625 352.57126 103.46562 351.7275Q104.18437 350.88376 105.54375 349.77438Q107.6375 348.05563 108.37187 347.05563Q109.12187 346.04 109.12187 345.14938Q109.12187 344.19626 108.45 343.55563Q107.77812 342.915 106.7 342.915Q105.54375 342.915 104.85625 343.6025Q104.18437 344.29 104.16875 345.49313L102.54375 345.32126Q102.71562 343.50876 103.79375 342.55563Q104.8875 341.6025 106.73125 341.6025Q108.575 341.6025 109.65312 342.63376Q110.74687 343.665 110.74687 345.18063Q110.74687 345.94626 110.41875 346.69626Q110.10625 347.44626 109.37187 348.27438Q108.6375 349.1025 106.93437 350.54Q105.5125 351.74313 105.10625 352.165Q104.7 352.58688 104.45 353.02438L110.7625 353.02438Z" fill-rule="nonzero"/><path fill="#000000" d="M87.45 314.05063Q87.45 311.76938 87.91875 310.37875Q88.3875 308.98813 89.30937 308.23813Q90.24687 307.4725 91.65312 307.4725Q92.68437 307.4725 93.46562 307.89438Q94.24687 308.30063 94.74687 309.0975Q95.2625 309.87875 95.55937 311.01938Q95.85625 312.14438 95.85625 314.05063Q95.85625 316.31625 95.3875 317.7225Q94.91875 319.11313 93.98125 319.87875Q93.05937 320.62875 91.65312 320.62875Q89.77812 320.62875 88.71562 319.30063Q87.45 317.69125 87.45 314.05063ZM89.075 314.05063Q89.075 317.2225 89.80937 318.285Q90.55937 319.33188 91.65312 319.33188Q92.73125 319.33188 93.48125 318.285Q94.23125 317.2225 94.23125 314.05063Q94.23125 310.87875 93.48125 309.83188Q92.73125 308.785 91.6375 308.785Q90.54375 308.785 89.8875 309.70688Q89.075 310.87875 89.075 314.05063ZM98.29375 320.41L98.29375 318.61313L100.10625 318.61313L100.10625 320.41Q100.10625 321.41 99.74687 322.01938Q99.40312 322.62875 98.6375 322.95688L98.2 322.285Q98.7 322.06625 98.93437 321.62875Q99.16875 321.20688 99.2 320.41L98.29375 320.41ZM102.45 317.00375L104.04375 316.80063Q104.30937 318.14438 104.96562 318.73813Q105.62187 319.33188 106.55937 319.33188Q107.68437 319.33188 108.45 318.56625Q109.21562 317.785 109.21562 316.64438Q109.21562 315.55063 108.49687 314.8475Q107.79375 314.12875 106.7 314.12875Q106.24687 314.12875 105.575 314.31625L105.74687 312.92563Q105.90312 312.94125 106.0125 312.94125Q107.0125 312.94125 107.825 312.41Q108.6375 311.87875 108.6375 310.785Q108.6375 309.91 108.04375 309.3475Q107.45 308.76938 106.52812 308.76938Q105.60625 308.76938 104.98125 309.3475Q104.37187 309.92563 104.2 311.0975L102.62187 310.81625Q102.90312 309.2225 103.93437 308.3475Q104.96562 307.4725 106.49687 307.4725Q107.54375 307.4725 108.43437 307.92563Q109.325 308.37875 109.79375 309.16Q110.2625 309.94125 110.2625 310.81625Q110.2625 311.66 109.80937 312.3475Q109.37187 313.01938 108.48125 313.42563Q109.62187 313.69125 110.24687 314.535Q110.8875 315.36313 110.8875 316.5975Q110.8875 318.285 109.65312 319.4725Q108.43437 320.64438 106.55937 320.64438Q104.85625 320.64438 103.73125 319.62875Q102.62187 318.61313 102.45 317.00375Z" fill-rule="nonzero"/><path fill="#000000" d="M87.45 279.92062Q87.45 277.63937 87.91875 276.24875Q88.3875 274.85812 89.30937 274.10812Q90.24687 273.3425 91.65312 273.3425Q92.68437 273.3425 93.46562 273.76437Q94.24687 274.17062 94.74687 274.9675Q95.2625 275.74875 95.55937 276.88937Q95.85625 278.01437 95.85625 279.92062Q95.85625 282.18625 95.3875 283.5925Q94.91875 284.98312 93.98125 285.74875Q93.05937 286.49875 91.65312 286.49875Q89.77812 286.49875 88.71562 285.17062Q87.45 283.56125 87.45 279.92062ZM89.075 279.92062Q89.075 283.0925 89.80937 284.155Q90.55937 285.20187 91.65312 285.20187Q92.73125 285.20187 93.48125 284.155Q94.23125 283.0925 94.23125 279.92062Q94.23125 276.74875 93.48125 275.70187Q92.73125 274.655 91.6375 274.655Q90.54375 274.655 89.8875 275.57687Q89.075 276.74875 89.075 279.92062ZM98.29375 286.28L98.29375 284.48312L100.10625 284.48312L100.10625 286.28Q100.10625 287.28 99.74687 287.88937Q99.40312 288.49875 98.6375 288.82687L98.2 288.155Q98.7 287.93625 98.93437 287.49875Q99.16875 287.07687 99.2 286.28L98.29375 286.28ZM107.5125 286.28L107.5125 283.20187L101.93437 283.20187L101.93437 281.74875L107.80937 273.38937L109.10625 273.38937L109.10625 281.74875L110.84062 281.74875L110.84062 283.20187L109.10625 283.20187L109.10625 286.28L107.5125 286.28ZM107.5125 281.74875L107.5125 275.93625L103.48125 281.74875L107.5125 281.74875Z" fill-rule="nonzero"/><path fill="#000000" d="M87.45 245.79062Q87.45 243.50937 87.91875 242.11874Q88.3875 240.72812 89.30937 239.97812Q90.24687 239.2125 91.65312 239.2125Q92.68437 239.2125 93.46562 239.63437Q94.24687 240.04062 94.74687 240.8375Q95.2625 241.61874 95.55937 242.75937Q95.85625 243.88437 95.85625 245.79062Q95.85625 248.05624 95.3875 249.4625Q94.91875 250.85312 93.98125 251.61874Q93.05937 252.36874 91.65312 252.36874Q89.77812 252.36874 88.71562 251.04062Q87.45 249.43124 87.45 245.79062ZM89.075 245.79062Q89.075 248.9625 89.80937 250.025Q90.55937 251.07187 91.65312 251.07187Q92.73125 251.07187 93.48125 250.025Q94.23125 248.9625 94.23125 245.79062Q94.23125 242.61874 93.48125 241.57187Q92.73125 240.525 91.6375 240.525Q90.54375 240.525 89.8875 241.44687Q89.075 242.61874 89.075 245.79062ZM98.29375 252.15L98.29375 250.35312L100.10625 250.35312L100.10625 252.15Q100.10625 253.15 99.74687 253.75937Q99.40312 254.36874 98.6375 254.69687L98.2 254.025Q98.7 253.80624 98.93437 253.36874Q99.16875 252.94687 99.2 252.15L98.29375 252.15ZM102.45 248.775L104.10625 248.63437Q104.29375 249.85312 104.96562 250.4625Q105.6375 251.07187 106.59062 251.07187Q107.73125 251.07187 108.5125 250.2125Q109.30937 249.35312 109.30937 247.91562Q109.30937 246.57187 108.54375 245.79062Q107.79375 245.00937 106.55937 245.00937Q105.79375 245.00937 105.16875 245.35312Q104.55937 245.69687 104.21562 246.25937L102.73125 246.05624L103.98125 239.44687L110.3875 239.44687L110.3875 240.94687L105.24687 240.94687L104.54375 244.41562Q105.71562 243.60312 106.98125 243.60312Q108.66875 243.60312 109.825 244.775Q110.99687 245.94687 110.99687 247.775Q110.99687 249.525 109.96562 250.80624Q108.73125 252.36874 106.59062 252.36874Q104.825 252.36874 103.71562 251.38437Q102.60625 250.4 102.45 248.775Z" fill-rule="nonzero"/><path fill="#000000" d="M87.45 211.66063Q87.45 209.37938 87.91875 207.98875Q88.3875 206.59813 89.30937 205.84813Q90.24687 205.0825 91.65312 205.0825Q92.68437 205.0825 93.46562 205.50438Q94.24687 205.91063 94.74687 206.7075Q95.2625 207.48875 95.55937 208.62938Q95.85625 209.75438 95.85625 211.66063Q95.85625 213.92625 95.3875 215.3325Q94.91875 216.72313 93.98125 217.48875Q93.05937 218.23875 91.65312 218.23875Q89.77812 218.23875 88.71562 216.91063Q87.45 215.30125 87.45 211.66063ZM89.075 211.66063Q89.075 214.8325 89.80937 215.895Q90.55937 216.94188 91.65312 216.94188Q92.73125 216.94188 93.48125 215.895Q94.23125 214.8325 94.23125 211.66063Q94.23125 208.48875 93.48125 207.44188Q92.73125 206.395 91.6375 206.395Q90.54375 206.395 89.8875 207.31688Q89.075 208.48875 89.075 211.66063ZM98.29375 218.02L98.29375 216.22313L100.10625 216.22313L100.10625 218.02Q100.10625 219.02 99.74687 219.62938Q99.40312 220.23875 98.6375 220.56688L98.2 219.895Q98.7 219.67625 98.93437 219.23875Q99.16875 218.81688 99.2 218.02L98.29375 218.02ZM110.65312 208.28563L109.09062 208.41063Q108.87187 207.48875 108.48125 207.06688Q107.84062 206.37938 106.90312 206.37938Q106.15312 206.37938 105.575 206.80125Q104.825 207.34813 104.3875 208.395Q103.96562 209.44188 103.95 211.37938Q104.52812 210.50438 105.34062 210.0825Q106.16875 209.66063 107.075 209.66063Q108.66875 209.66063 109.77812 210.8325Q110.8875 211.98875 110.8875 213.8325Q110.8875 215.05125 110.35625 216.09813Q109.84062 217.12938 108.91875 217.69188Q108.0125 218.23875 106.85625 218.23875Q104.87187 218.23875 103.62187 216.78563Q102.37187 215.3325 102.37187 211.98875Q102.37187 208.25438 103.7625 206.55125Q104.96562 205.0825 106.99687 205.0825Q108.52812 205.0825 109.49687 205.94188Q110.46562 206.78563 110.65312 208.28563ZM104.2 213.84813Q104.2 214.66063 104.54375 215.41063Q104.8875 216.16063 105.5125 216.55125Q106.1375 216.94188 106.825 216.94188Q107.825 216.94188 108.54375 216.12938Q109.2625 215.31688 109.2625 213.92625Q109.2625 212.59813 108.54375 211.8325Q107.84062 211.05125 106.7625 211.05125Q105.68437 211.05125 104.93437 211.8325Q104.2 212.59813 104.2 213.84813Z" fill-rule="nonzero"/><path fill="#000000" d="M87.45 177.53062Q87.45 175.24937 87.91875 173.85875Q88.3875 172.46812 89.30937 171.71812Q90.24687 170.9525 91.65312 170.9525Q92.68437 170.9525 93.46562 171.37437Q94.24687 171.78062 94.74687 172.5775Q95.2625 173.35875 95.55937 174.49937Q95.85625 175.62437 95.85625 177.53062Q95.85625 179.79625 95.3875 181.2025Q94.91875 182.59312 93.98125 183.35875Q93.05937 184.10875 91.65312 184.10875Q89.77812 184.10875 88.71562 182.78062Q87.45 181.17125 87.45 177.53062ZM89.075 177.53062Q89.075 180.7025 89.80937 181.765Q90.55937 182.81187 91.65312 182.81187Q92.73125 182.81187 93.48125 181.765Q94.23125 180.7025 94.23125 177.53062Q94.23125 174.35875 93.48125 173.31187Q92.73125 172.265 91.6375 172.265Q90.54375 172.265 89.8875 173.18687Q89.075 174.35875 89.075 177.53062ZM98.29375 183.89L98.29375 182.09312L100.10625 182.09312L100.10625 183.89Q100.10625 184.89 99.74687 185.49937Q99.40312 186.10875 98.6375 186.43687L98.2 185.765Q98.7 185.54625 98.93437 185.10875Q99.16875 184.68687 99.2 183.89L98.29375 183.89ZM102.55937 172.68687L102.55937 171.17125L110.8875 171.17125L110.8875 172.40562Q109.66875 173.71812 108.45 175.89Q107.24687 178.04625 106.59062 180.34312Q106.10625 181.96812 105.98125 183.89L104.35625 183.89Q104.3875 182.37437 104.95 180.21812Q105.52812 178.06187 106.59062 176.06187Q107.65312 174.06187 108.85625 172.68687L102.55937 172.68687Z" fill-rule="nonzero"/><path fill="#000000" d="M87.45 143.40062Q87.45 141.11937 87.91875 139.72874Q88.3875 138.33812 89.30937 137.58812Q90.24687 136.8225 91.65312 136.8225Q92.68437 136.8225 93.46562 137.24437Q94.24687 137.65062 94.74687 138.4475Q95.2625 139.22874 95.55937 140.36937Q95.85625 141.49437 95.85625 143.40062Q95.85625 145.66624 95.3875 147.0725Q94.91875 148.46312 93.98125 149.22874Q93.05937 149.97874 91.65312 149.97874Q89.77812 149.97874 88.71562 148.65062Q87.45 147.04124 87.45 143.40062ZM89.075 143.40062Q89.075 146.5725 89.80937 147.635Q90.55937 148.68187 91.65312 148.68187Q92.73125 148.68187 93.48125 147.635Q94.23125 146.5725 94.23125 143.40062Q94.23125 140.22874 93.48125 139.18187Q92.73125 138.135 91.6375 138.135Q90.54375 138.135 89.8875 139.05687Q89.075 140.22874 89.075 143.40062ZM98.29375 149.76L98.29375 147.96312L100.10625 147.96312L100.10625 149.76Q100.10625 150.76 99.74687 151.36937Q99.40312 151.97874 98.6375 152.30687L98.2 151.635Q98.7 151.41624 98.93437 150.97874Q99.16875 150.55687 99.2 149.76L98.29375 149.76ZM104.8875 142.77562Q103.90312 142.41624 103.41875 141.74437Q102.95 141.0725 102.95 140.15062Q102.95 138.74437 103.95 137.79124Q104.96562 136.8225 106.65312 136.8225Q108.34062 136.8225 109.35625 137.80687Q110.3875 138.77562 110.3875 140.18187Q110.3875 141.08812 109.91875 141.76Q109.45 142.41624 108.49687 142.77562Q109.68437 143.16624 110.29375 144.02562Q110.91875 144.885 110.91875 146.0725Q110.91875 147.72874 109.74687 148.85374Q108.575 149.97874 106.66875 149.97874Q104.7625 149.97874 103.59062 148.85374Q102.43437 147.71312 102.43437 146.02562Q102.43437 144.77562 103.05937 143.93187Q103.7 143.0725 104.8875 142.77562ZM104.55937 140.08812Q104.55937 141.01 105.15312 141.58812Q105.74687 142.16624 106.68437 142.16624Q107.59062 142.16624 108.16875 141.58812Q108.7625 141.01 108.7625 140.18187Q108.7625 139.30687 108.15312 138.71312Q107.55937 138.11937 106.66875 138.11937Q105.7625 138.11937 105.15312 138.6975Q104.55937 139.27562 104.55937 140.08812ZM104.05937 146.04124Q104.05937 146.71312 104.37187 147.35374Q104.7 147.97874 105.325 148.33812Q105.96562 148.68187 106.7 148.68187Q107.825 148.68187 108.55937 147.9475Q109.30937 147.21312 109.30937 146.08812Q109.30937 144.9475 108.54375 144.21312Q107.77812 143.46312 106.6375 143.46312Q105.52812 143.46312 104.79375 144.1975Q104.05937 144.93187 104.05937 146.04124Z" fill-rule="nonzero"/><path fill="#000000" d="M87.45 109.27062Q87.45 106.98937 87.91875 105.59875Q88.3875 104.20812 89.30937 103.45812Q90.24687 102.6925 91.65312 102.6925Q92.68437 102.6925 93.46562 103.11437Q94.24687 103.52062 94.74687 104.3175Q95.2625 105.09875 95.55937 106.23937Q95.85625 107.36437 95.85625 109.27062Q95.85625 111.53625 95.3875 112.9425Q94.91875 114.33312 93.98125 115.09875Q93.05937 115.84875 91.65312 115.84875Q89.77812 115.84875 88.71562 114.52062Q87.45 112.91125 87.45 109.27062ZM89.075 109.27062Q89.075 112.4425 89.80937 113.505Q90.55937 114.55187 91.65312 114.55187Q92.73125 114.55187 93.48125 113.505Q94.23125 112.4425 94.23125 109.27062Q94.23125 106.09875 93.48125 105.05187Q92.73125 104.005 91.6375 104.005Q90.54375 104.005 89.8875 104.92687Q89.075 106.09875 89.075 109.27062ZM98.29375 115.63L98.29375 113.83312L100.10625 113.83312L100.10625 115.63Q100.10625 116.63 99.74687 117.23937Q99.40312 117.84875 98.6375 118.17687L98.2 117.505Q98.7 117.28625 98.93437 116.84875Q99.16875 116.42687 99.2 115.63L98.29375 115.63ZM102.68437 112.64562L104.2 112.505Q104.40312 113.58312 104.93437 114.0675Q105.48125 114.55187 106.34062 114.55187Q107.075 114.55187 107.62187 114.22375Q108.16875 113.88 108.5125 113.33312Q108.87187 112.77062 109.10625 111.8175Q109.34062 110.86437 109.34062 109.88Q109.34062 109.77062 109.34062 109.5675Q108.85625 110.3175 108.02812 110.78625Q107.21562 111.255 106.2625 111.255Q104.66875 111.255 103.55937 110.09875Q102.45 108.9425 102.45 107.03625Q102.45 105.08312 103.60625 103.89562Q104.7625 102.6925 106.49687 102.6925Q107.7625 102.6925 108.79375 103.38Q109.84062 104.05187 110.37187 105.30187Q110.91875 106.55187 110.91875 108.92687Q110.91875 111.39562 110.37187 112.86437Q109.84062 114.3175 108.77812 115.08312Q107.73125 115.84875 106.30937 115.84875Q104.79375 115.84875 103.825 115.02062Q102.87187 114.17687 102.68437 112.64562ZM109.16875 106.95812Q109.16875 105.59875 108.43437 104.80187Q107.71562 104.005 106.7 104.005Q105.6375 104.005 104.85625 104.86437Q104.075 105.72375 104.075 107.09875Q104.075 108.33312 104.80937 109.09875Q105.55937 109.86437 106.65312 109.86437Q107.74687 109.86437 108.45 109.09875Q109.16875 108.33312 109.16875 106.95812Z" fill-rule="nonzero"/><path fill="#000000" d="M93.40312 81.5L91.825 81.5L91.825 71.421875Q91.24687 71.96875 90.325 72.515625Q89.40312 73.046875 88.65312 73.328125L88.65312 71.796875Q89.98125 71.171875 90.98125 70.28125Q91.98125 69.390625 92.3875 68.5625L93.40312 68.5625L93.40312 81.5ZM98.29375 81.5L98.29375 79.703125L100.10625 79.703125L100.10625 81.5Q100.10625 82.5 99.74687 83.109375Q99.40312 83.71875 98.6375 84.046875L98.2 83.375Q98.7 83.15625 98.93437 82.71875Q99.16875 82.296875 99.2 81.5L98.29375 81.5ZM102.45 75.140625Q102.45 72.859375 102.91875 71.46875Q103.3875 70.078125 104.30937 69.328125Q105.24687 68.5625 106.65312 68.5625Q107.68437 68.5625 108.46562 68.984375Q109.24687 69.390625 109.74687 70.1875Q110.2625 70.96875 110.55937 72.109375Q110.85625 73.234375 110.85625 75.140625Q110.85625 77.40625 110.3875 78.8125Q109.91875 80.203125 108.98125 80.96875Q108.05937 81.71875 106.65312 81.71875Q104.77812 81.71875 103.71562 80.390625Q102.45 78.78125 102.45 75.140625ZM104.075 75.140625Q104.075 78.3125 104.80937 79.375Q105.55937 80.421875 106.65312 80.421875Q107.73125 80.421875 108.48125 79.375Q109.23125 78.3125 109.23125 75.140625Q109.23125 71.96875 108.48125 70.921875Q107.73125 69.875 106.6375 69.875Q105.54375 69.875 104.8875 70.796875Q104.075 71.96875 104.075 75.140625Z" fill-rule="nonzero"/><path fill="#000000" d="M183.51913 441.0031L183.51913 439.2375L188.90976 439.2375L188.90976 441.0031L183.51913 441.0031ZM200.08163 445.3L196.12851 434.925L197.98788 434.925L200.22226 441.14374Q200.58163 442.14374 200.87851 443.22186Q201.11288 442.40936 201.53476 441.2531L203.83163 434.925L205.64413 434.925L201.72226 445.3L200.08163 445.3ZM212.33163 445.3L210.56601 445.3L210.56601 434.09686Q209.94101 434.70624 208.90976 435.3156Q207.87851 435.90936 207.05038 436.22186L207.05038 434.51874Q208.53476 433.83124 209.62851 432.84686Q210.73788 431.84686 211.19101 430.925L212.33163 430.925L212.33163 445.3Z" fill-rule="nonzero"/><path fill="#000000" d="M288.14236 445.3L284.18924 434.925L286.0486 434.925L288.283 441.14374Q288.64236 442.14374 288.93924 443.22186Q289.1736 442.40936 289.5955 441.2531L291.89236 434.925L293.70486 434.925L289.783 445.3L288.14236 445.3ZM300.39236 445.3L298.62674 445.3L298.62674 434.09686Q298.00174 434.70624 296.9705 435.3156Q295.93924 435.90936 295.1111 436.22186L295.1111 434.51874Q296.5955 433.83124 297.68924 432.84686Q298.7986 431.84686 299.25174 430.925L300.39236 430.925L300.39236 445.3ZM314.95486 442.9875L314.95486 439.0656L311.0486 439.0656L311.0486 437.425L314.95486 437.425L314.95486 433.51874L316.6111 433.51874L316.6111 437.425L320.50174 437.425L320.50174 439.0656L316.6111 439.0656L316.6111 442.9875L314.95486 442.9875ZM332.14236 445.3L328.18924 434.925L330.0486 434.925L332.283 441.14374Q332.64236 442.14374 332.93924 443.22186Q333.1736 442.40936 333.5955 441.2531L335.89236 434.925L337.70486 434.925L333.783 445.3L332.14236 445.3ZM347.00174 443.6125L347.00174 445.3L337.5486 445.3Q337.533 444.65936 337.75174 444.08124Q338.1111 443.1125 338.908 442.175Q339.70486 441.2375 341.20486 440.0031Q343.5486 438.09686 344.3611 436.9875Q345.18924 435.8625 345.18924 434.8625Q345.18924 433.8156 344.43924 433.09686Q343.68924 432.3781 342.4861 432.3781Q341.2205 432.3781 340.45486 433.14374Q339.68924 433.90936 339.68924 435.2531L337.87674 435.0656Q338.06424 433.05 339.26736 431.9875Q340.4861 430.925 342.533 430.925Q344.57986 430.925 345.783 432.0656Q346.9861 433.20624 346.9861 434.89374Q346.9861 435.7531 346.62674 436.59686Q346.283 437.425 345.4705 438.34686Q344.658 439.2531 342.76736 440.8625Q341.1736 442.1906 340.7205 442.65936Q340.283 443.1281 339.9861 443.6125L347.00174 443.6125Z" fill-rule="nonzero"/><path fill="#000000" d="M407.20312 445.3L403.25 434.925L405.10938 434.925L407.34375 441.14374Q407.70312 442.14374 408.0 443.22186Q408.23438 442.40936 408.65625 441.2531L410.95312 434.925L412.76562 434.925L408.84375 445.3L407.20312 445.3ZM419.45312 445.3L417.6875 445.3L417.6875 434.09686Q417.0625 434.70624 416.03125 435.3156Q415.0 435.90936 414.17188 436.22186L414.17188 434.51874Q415.65625 433.83124 416.75 432.84686Q417.85938 431.84686 418.3125 430.925L419.45312 430.925L419.45312 445.3ZM429.64062 441.0031L429.64062 439.2375L435.03125 439.2375L435.03125 441.0031L429.64062 441.0031ZM446.20312 445.3L442.25 434.925L444.10938 434.925L446.34375 441.14374Q446.70312 442.14374 447.0 443.22186Q447.23438 442.40936 447.65625 441.2531L449.95312 434.925L451.76562 434.925L447.84375 445.3L446.20312 445.3ZM461.0625 443.6125L461.0625 445.3L451.60938 445.3Q451.59375 444.65936 451.8125 444.08124Q452.17188 443.1125 452.96875 442.175Q453.76562 441.2375 455.26562 440.0031Q457.60938 438.09686 458.42188 436.9875Q459.25 435.8625 459.25 434.8625Q459.25 433.8156 458.5 433.09686Q457.75 432.3781 456.54688 432.3781Q455.28125 432.3781 454.51562 433.14374Q453.75 433.90936 453.75 435.2531L451.9375 435.0656Q452.125 433.05 453.32812 431.9875Q454.54688 430.925 456.59375 430.925Q458.64062 430.925 459.84375 432.0656Q461.04688 433.20624 461.04688 434.89374Q461.04688 435.7531 460.6875 436.59686Q460.34375 437.425 459.53125 438.34686Q458.71875 439.2531 456.82812 440.8625Q455.23438 442.1906 454.78125 442.65936Q454.34375 443.1281 454.04688 443.6125L461.0625 443.6125Z" fill-rule="nonzero"/><path fill="#000000" d="M523.26385 445.3L519.3107 434.925L521.1701 434.925L523.4045 441.14374Q523.76385 442.14374 524.0607 443.22186Q524.2951 442.40936 524.717 441.2531L527.01385 434.925L528.82635 434.925L524.9045 445.3L523.26385 445.3ZM535.51385 445.3L533.7482 445.3L533.7482 434.09686Q533.1232 434.70624 532.092 435.3156Q531.0607 435.90936 530.2326 436.22186L530.2326 434.51874Q531.717 433.83124 532.8107 432.84686Q533.9201 431.84686 534.3732 430.925L535.51385 430.925L535.51385 445.3ZM545.6857 433.6125L546.13885 432.22186Q547.6857 432.76874 548.38885 433.175Q548.20135 431.40936 548.20135 430.7375L549.6076 430.7375Q549.57635 431.70624 549.38885 433.15936Q550.38885 432.65936 551.6857 432.22186L552.13885 433.6125Q550.9045 434.01874 549.717 434.15936Q550.3107 434.675 551.38885 436.0031L550.217 436.83124Q549.6545 436.0656 548.8732 434.7375Q548.1545 436.1125 547.6076 436.83124L546.45135 436.0031Q547.592 434.6125 548.07635 434.15936Q546.82635 433.90936 545.6857 433.6125ZM563.26385 445.3L559.3107 434.925L561.1701 434.925L563.4045 441.14374Q563.76385 442.14374 564.0607 443.22186Q564.2951 442.40936 564.717 441.2531L567.01385 434.925L568.82635 434.925L564.9045 445.3L563.26385 445.3ZM578.1232 443.6125L578.1232 445.3L568.6701 445.3Q568.6545 444.65936 568.8732 444.08124Q569.2326 443.1125 570.0295 442.175Q570.82635 441.2375 572.32635 440.0031Q574.6701 438.09686 575.4826 436.9875Q576.3107 435.8625 576.3107 434.8625Q576.3107 433.8156 575.5607 433.09686Q574.8107 432.3781 573.6076 432.3781Q572.342 432.3781 571.57635 433.14374Q570.8107 433.90936 570.8107 435.2531L568.9982 435.0656Q569.1857 433.05 570.38885 431.9875Q571.6076 430.925 573.6545 430.925Q575.70135 430.925 576.9045 432.0656Q578.1076 433.20624 578.1076 434.89374Q578.1076 435.7531 577.7482 436.59686Q577.4045 437.425 576.592 438.34686Q575.7795 439.2531 573.88885 440.8625Q572.2951 442.1906 571.842 442.65936Q571.4045 443.1281 571.1076 443.6125L578.1232 443.6125Z" fill-rule="nonzero"/><path fill="#000000" d="M640.82465 445.3L636.8715 434.925L638.7309 434.925L640.9653 441.14374Q641.32465 442.14374 641.6215 443.22186Q641.8559 442.40936 642.2778 441.2531L644.57465 434.925L646.38715 434.925L642.4653 445.3L640.82465 445.3ZM653.07465 445.3L651.309 445.3L651.309 434.09686Q650.684 434.70624 649.6528 435.3156Q648.6215 435.90936 647.7934 436.22186L647.7934 434.51874Q649.2778 433.83124 650.3715 432.84686Q651.4809 431.84686 651.934 430.925L653.07465 430.925L653.07465 445.3ZM662.6215 445.55L666.7778 430.7375L668.184 430.7375L664.0434 445.55L662.6215 445.55ZM678.82465 445.3L674.8715 434.925L676.7309 434.925L678.9653 441.14374Q679.32465 442.14374 679.6215 443.22186Q679.8559 442.40936 680.2778 441.2531L682.57465 434.925L684.38715 434.925L680.4653 445.3L678.82465 445.3ZM693.684 443.6125L693.684 445.3L684.2309 445.3Q684.2153 444.65936 684.434 444.08124Q684.7934 443.1125 685.5903 442.175Q686.38715 441.2375 687.88715 440.0031Q690.2309 438.09686 691.0434 436.9875Q691.8715 435.8625 691.8715 434.8625Q691.8715 433.8156 691.1215 433.09686Q690.3715 432.3781 689.1684 432.3781Q687.9028 432.3781 687.13715 433.14374Q686.3715 433.90936 686.3715 435.2531L684.559 435.0656Q684.7465 433.05 685.94965 431.9875Q687.1684 430.925 689.2153 430.925Q691.26215 430.925 692.4653 432.0656Q693.6684 433.20624 693.6684 434.89374Q693.6684 435.7531 693.309 436.59686Q692.9653 437.425 692.1528 438.34686Q691.3403 439.2531 689.44965 440.8625Q687.8559 442.1906 687.4028 442.65936Q686.9653 443.1281 686.6684 443.6125L693.684 443.6125Z" fill-rule="nonzero"/><path fill="#00ff00" d="M181.0 31.2C181.0 30.647715 181.44771 30.2 182.0 30.2L192.0 30.2C192.55229 30.2 193.0 30.647715 193.0 31.2L193.0 41.2C193.0 41.752285 192.55229 42.2 192.0 42.2L182.0 42.2C181.44771 42.2 181.0 41.752285 181.0 41.2Z" fill-rule="nonzero"/><path fill="#1a1a1a" d="M202.60938 43.7L202.60938 27.95L208.51562 27.95Q210.32812 27.95 211.40625 28.434376Q212.5 28.903126 213.10938 29.903126Q213.73438 30.8875 213.73438 31.98125Q213.73438 32.996876 213.1875 33.8875Q212.64062 34.778126 211.53125 35.325Q212.96875 35.746876 213.73438 36.7625Q214.5 37.7625 214.5 39.1375Q214.5 40.246876 214.03125 41.2Q213.5625 42.1375 212.875 42.653126Q212.1875 43.16875 211.15625 43.434376Q210.125 43.7 208.60938 43.7L202.60938 43.7ZM204.70312 34.575L208.09375 34.575Q209.48438 34.575 210.09375 34.3875Q210.89062 34.153126 211.28125 33.60625Q211.6875 33.059376 211.6875 32.23125Q211.6875 31.45 211.3125 30.85625Q210.9375 30.246876 210.23438 30.028126Q209.54688 29.809376 207.84375 29.809376L204.70312 29.809376L204.70312 34.575ZM204.70312 41.840626L208.60938 41.840626Q209.625 41.840626 210.03125 41.7625Q210.75 41.6375 211.23438 41.340626Q211.71875 41.028126 212.03125 40.465626Q212.34375 39.8875 212.34375 39.1375Q212.34375 38.246876 211.89062 37.60625Q211.4375 36.95 210.64062 36.7Q209.84375 36.434376 208.34375 36.434376L204.70312 36.434376L204.70312 41.840626ZM217.70312 43.7L217.70312 27.95L223.64062 27.95Q225.20312 27.95 226.03125 28.10625Q227.1875 28.29375 227.96875 28.840626Q228.76562 29.3875 229.23438 30.371876Q229.71875 31.340626 229.71875 32.5125Q229.71875 34.5125 228.4375 35.903126Q227.15625 37.29375 223.82812 37.29375L219.78125 37.29375L219.78125 43.7L217.70312 43.7ZM219.78125 35.434376L223.85938 35.434376Q225.875 35.434376 226.71875 34.684376Q227.5625 33.934376 227.5625 32.575Q227.5625 31.575 227.0625 30.871876Q226.57812 30.16875 225.75 29.95Q225.23438 29.809376 223.8125 29.809376L219.78125 29.809376L219.78125 35.434376ZM239.89062 42.29375Q238.82812 43.2 237.82812 43.590626Q236.82812 43.965626 235.6875 43.965626Q233.8125 43.965626 232.79688 43.04375Q231.79688 42.121876 231.79688 40.684376Q231.79688 39.85625 232.17188 39.16875Q232.5625 38.465626 233.17188 38.059376Q233.79688 37.6375 234.5625 37.41875Q235.14062 37.2625 236.28125 37.121876Q238.625 36.840626 239.73438 36.465626Q239.75 36.059376 239.75 35.95Q239.75 34.778126 239.20312 34.29375Q238.45312 33.6375 237.0 33.6375Q235.625 33.6375 234.96875 34.121876Q234.32812 34.590626 234.01562 35.809376L232.125 35.54375Q232.39062 34.325 232.96875 33.590626Q233.5625 32.840626 234.67188 32.434376Q235.79688 32.028126 237.28125 32.028126Q238.73438 32.028126 239.64062 32.371876Q240.5625 32.715626 240.98438 33.246876Q241.42188 33.7625 241.59375 34.559376Q241.6875 35.059376 241.6875 36.340626L241.6875 38.91875Q241.6875 41.621876 241.8125 42.340626Q241.9375 43.04375 242.29688 43.7L240.28125 43.7Q239.98438 43.090626 239.89062 42.29375ZM239.73438 37.98125Q238.6875 38.403126 236.57812 38.7Q235.39062 38.871876 234.89062 39.090626Q234.39062 39.309376 234.125 39.73125Q233.85938 40.1375 233.85938 40.6375Q233.85938 41.41875 234.4375 41.934376Q235.03125 42.45 236.15625 42.45Q237.28125 42.45 238.14062 41.965626Q239.01562 41.465626 239.42188 40.621876Q239.73438 39.965626 239.73438 38.684376L239.73438 37.98125ZM244.42188 43.7L244.42188 32.29375L246.17188 32.29375L246.17188 34.028126Q246.82812 32.809376 247.39062 32.41875Q247.96875 32.028126 248.64062 32.028126Q249.625 32.028126 250.625 32.653126L249.96875 34.45Q249.25 34.028126 248.54688 34.028126Q247.90625 34.028126 247.40625 34.41875Q246.90625 34.79375 246.6875 35.465626Q246.35938 36.496876 246.35938 37.73125L246.35938 43.7L244.42188 43.7ZM250.67188 40.29375L252.59375 39.996876Q252.75 41.1375 253.48438 41.7625Q254.21875 42.371876 255.54688 42.371876Q256.875 42.371876 257.51562 41.825Q258.17188 41.278126 258.17188 40.559376Q258.17188 39.903126 257.59375 39.528126Q257.20312 39.2625 255.625 38.871876Q253.48438 38.325 252.65625 37.934376Q251.84375 37.54375 251.42188 36.85625Q251.0 36.153126 251.0 35.325Q251.0 34.559376 251.34375 33.91875Q251.70312 33.2625 252.29688 32.825Q252.75 32.496876 253.53125 32.2625Q254.3125 32.028126 255.20312 32.028126Q256.54688 32.028126 257.5625 32.41875Q258.57812 32.809376 259.0625 33.465626Q259.54688 34.121876 259.71875 35.23125L257.82812 35.496876Q257.70312 34.60625 257.07812 34.121876Q256.46875 33.621876 255.34375 33.621876Q254.0 33.621876 253.4375 34.059376Q252.875 34.496876 252.875 35.090626Q252.875 35.465626 253.10938 35.778126Q253.34375 36.090626 253.84375 36.29375Q254.14062 36.3875 255.54688 36.778126Q257.60938 37.325 258.42188 37.684376Q259.23438 38.028126 259.6875 38.7Q260.15625 39.35625 260.15625 40.340626Q260.15625 41.309376 259.59375 42.16875Q259.03125 43.028126 257.95312 43.496876Q256.89062 43.965626 255.54688 43.965626Q253.32812 43.965626 252.15625 43.04375Q251.0 42.10625 250.67188 40.29375ZM270.26562 40.028126L272.26562 40.278126Q271.78125 42.028126 270.5 42.996876Q269.23438 43.965626 267.23438 43.965626Q264.73438 43.965626 263.26562 42.41875Q261.8125 40.871876 261.8125 38.090626Q261.8125 35.215626 263.28125 33.621876Q264.76562 32.028126 267.14062 32.028126Q269.42188 32.028126 270.875 33.590626Q272.32812 35.153126 272.32812 37.98125Q272.32812 38.153126 272.3125 38.496876L263.79688 38.496876Q263.90625 40.371876 264.85938 41.371876Q265.82812 42.371876 267.25 42.371876Q268.3125 42.371876 269.0625 41.809376Q269.8125 41.246876 270.26562 40.028126ZM263.90625 36.903126L270.28125 36.903126Q270.15625 35.465626 269.54688 34.746876Q268.625 33.621876 267.15625 33.621876Q265.82812 33.621876 264.92188 34.5125Q264.01562 35.403126 263.90625 36.903126ZM274.42188 43.7L274.42188 32.29375L276.17188 32.29375L276.17188 34.028126Q276.82812 32.809376 277.39062 32.41875Q277.96875 32.028126 278.64062 32.028126Q279.625 32.028126 280.625 32.653126L279.96875 34.45Q279.25 34.028126 278.54688 34.028126Q277.90625 34.028126 277.40625 34.41875Q276.90625 34.79375 276.6875 35.465626Q276.35938 36.496876 276.35938 37.73125L276.35938 43.7L274.42188 43.7ZM287.0625 36.028126Q287.0625 32.10625 289.17188 29.8875Q291.28125 27.66875 294.60938 27.66875Q296.78125 27.66875 298.53125 28.715626Q300.28125 29.7625 301.20312 31.621876Q302.125 33.48125 302.125 35.840626Q302.125 38.246876 301.15625 40.1375Q300.1875 42.028126 298.40625 42.996876Q296.64062 43.965626 294.59375 43.965626Q292.375 43.965626 290.625 42.903126Q288.875 41.825 287.96875 39.965626Q287.0625 38.10625 287.0625 36.028126ZM289.21875 36.059376Q289.21875 38.903126 290.75 40.54375Q292.28125 42.184376 294.57812 42.184376Q296.9375 42.184376 298.45312 40.528126Q299.96875 38.871876 299.96875 35.840626Q299.96875 33.91875 299.3125 32.48125Q298.67188 31.04375 297.42188 30.2625Q296.17188 29.465626 294.60938 29.465626Q292.40625 29.465626 290.8125 30.996876Q289.21875 32.5125 289.21875 36.059376ZM304.60938 43.7L304.60938 27.95L306.70312 27.95L306.70312 41.840626L314.45312 41.840626L314.45312 43.7L304.60938 43.7ZM316.70312 43.7L316.70312 27.95L322.125 27.95Q323.95312 27.95 324.92188 28.184376Q326.28125 28.48125 327.23438 29.309376Q328.48438 30.35625 329.09375 31.996876Q329.71875 33.6375 329.71875 35.746876Q329.71875 37.528126 329.29688 38.91875Q328.875 40.309376 328.21875 41.215626Q327.5625 42.121876 326.78125 42.653126Q326.01562 43.16875 324.90625 43.434376Q323.8125 43.7 322.375 43.7L316.70312 43.7ZM318.78125 41.840626L322.14062 41.840626Q323.70312 41.840626 324.57812 41.559376Q325.46875 41.2625 326.0 40.73125Q326.73438 39.996876 327.14062 38.746876Q327.5625 37.496876 327.5625 35.7Q327.5625 33.23125 326.75 31.91875Q325.95312 30.590626 324.78125 30.1375Q323.95312 29.809376 322.09375 29.809376L318.78125 29.809376L318.78125 41.840626Z" fill-rule="nonzero"/><path fill="#ff00ff" d="M347.0 31.2C347.0 30.647715 347.44772 30.2 348.0 30.2L358.0 30.2C358.55228 30.2 359.0 30.647715 359.0 31.2L359.0 41.2C359.0 41.752285 358.55228 42.2 358.0 42.2L348.0 42.2C347.44772 42.2 347.0 41.752285 347.0 41.2Z" fill-rule="nonzero"/><path fill="#1a1a1a" d="M379.9375 38.184376L382.01562 38.7Q381.35938 41.278126 379.65625 42.621876Q377.95312 43.965626 375.5 43.965626Q372.95312 43.965626 371.35938 42.934376Q369.76562 41.8875 368.92188 39.934376Q368.09375 37.965626 368.09375 35.7Q368.09375 33.246876 369.03125 31.41875Q369.96875 29.590626 371.70312 28.6375Q373.45312 27.684376 375.53125 27.684376Q377.89062 27.684376 379.5 28.8875Q381.10938 30.090626 381.75 32.2625L379.70312 32.746876Q379.15625 31.028126 378.10938 30.246876Q377.0625 29.465626 375.48438 29.465626Q373.67188 29.465626 372.45312 30.340626Q371.23438 31.2 370.73438 32.66875Q370.25 34.1375 370.25 35.7Q370.25 37.7 370.82812 39.2Q371.42188 40.7 372.65625 41.45Q373.89062 42.184376 375.32812 42.184376Q377.07812 42.184376 378.28125 41.184376Q379.5 40.16875 379.9375 38.184376ZM388.51562 41.153126L388.51562 36.840626L384.21875 36.840626L384.21875 35.028126L388.51562 35.028126L388.51562 30.746876L390.34375 30.746876L390.34375 35.028126L394.625 35.028126L394.625 36.840626L390.34375 36.840626L390.34375 41.153126L388.51562 41.153126ZM401.51562 41.153126L401.51562 36.840626L397.21875 36.840626L397.21875 35.028126L401.51562 35.028126L401.51562 30.746876L403.34375 30.746876L403.34375 35.028126L407.625 35.028126L407.625 36.840626L403.34375 36.840626L403.34375 41.153126L401.51562 41.153126Z" fill-rule="nonzero"/><path fill="#0000ff" d="M425.0 31.2C425.0 30.647715 425.44772 30.2 426.0 30.2L436.0 30.2C436.55228 30.2 437.0 30.647715 437.0 31.2L437.0 41.2C437.0 41.752285 436.55228 42.2 436.0 42.2L426.0 42.2C425.44772 42.2 425.0 41.752285 425.0 41.2Z" fill-rule="nonzero"/><path fill="#1a1a1a" d="M446.60938 43.7L446.60938 27.95L452.51562 27.95Q454.32812 27.95 455.40625 28.434376Q456.5 28.903126 457.10938 29.903126Q457.73438 30.8875 457.73438 31.98125Q457.73438 32.996876 457.1875 33.8875Q456.64062 34.778126 455.53125 35.325Q456.96875 35.746876 457.73438 36.7625Q458.5 37.7625 458.5 39.1375Q458.5 40.246876 458.03125 41.2Q457.5625 42.1375 456.875 42.653126Q456.1875 43.16875 455.15625 43.434376Q454.125 43.7 452.60938 43.7L446.60938 43.7ZM448.70312 34.575L452.09375 34.575Q453.48438 34.575 454.09375 34.3875Q454.89062 34.153126 455.28125 33.60625Q455.6875 33.059376 455.6875 32.23125Q455.6875 31.45 455.3125 30.85625Q454.9375 30.246876 454.23438 30.028126Q453.54688 29.809376 451.84375 29.809376L448.70312 29.809376L448.70312 34.575ZM448.70312 41.840626L452.60938 41.840626Q453.625 41.840626 454.03125 41.7625Q454.75 41.6375 455.23438 41.340626Q455.71875 41.028126 456.03125 40.465626Q456.34375 39.8875 456.34375 39.1375Q456.34375 38.246876 455.89062 37.60625Q455.4375 36.95 454.64062 36.7Q453.84375 36.434376 452.34375 36.434376L448.70312 36.434376L448.70312 41.840626ZM461.70312 43.7L461.70312 27.95L467.64062 27.95Q469.20312 27.95 470.03125 28.10625Q471.1875 28.29375 471.96875 28.840626Q472.76562 29.3875 473.23438 30.371876Q473.71875 31.340626 473.71875 32.5125Q473.71875 34.5125 472.4375 35.903126Q471.15625 37.29375 467.82812 37.29375L463.78125 37.29375L463.78125 43.7L461.70312 43.7ZM463.78125 35.434376L467.85938 35.434376Q469.875 35.434376 470.71875 34.684376Q471.5625 33.934376 471.5625 32.575Q471.5625 31.575 471.0625 30.871876Q470.57812 30.16875 469.75 29.95Q469.23438 29.809376 467.8125 29.809376L463.78125 29.809376L463.78125 35.434376ZM483.89062 42.29375Q482.82812 43.2 481.82812 43.590626Q480.82812 43.965626 479.6875 43.965626Q477.8125 43.965626 476.79688 43.04375Q475.79688 42.121876 475.79688 40.684376Q475.79688 39.85625 476.17188 39.16875Q476.5625 38.465626 477.17188 38.059376Q477.79688 37.6375 478.5625 37.41875Q479.14062 37.2625 480.28125 37.121876Q482.625 36.840626 483.73438 36.465626Q483.75 36.059376 483.75 35.95Q483.75 34.778126 483.20312 34.29375Q482.45312 33.6375 481.0 33.6375Q479.625 33.6375 478.96875 34.121876Q478.32812 34.590626 478.01562 35.809376L476.125 35.54375Q476.39062 34.325 476.96875 33.590626Q477.5625 32.840626 478.67188 32.434376Q479.79688 32.028126 481.28125 32.028126Q482.73438 32.028126 483.64062 32.371876Q484.5625 32.715626 484.98438 33.246876Q485.42188 33.7625 485.59375 34.559376Q485.6875 35.059376 485.6875 36.340626L485.6875 38.91875Q485.6875 41.621876 485.8125 42.340626Q485.9375 43.04375 486.29688 43.7L484.28125 43.7Q483.98438 43.090626 483.89062 42.29375ZM483.73438 37.98125Q482.6875 38.403126 480.57812 38.7Q479.39062 38.871876 478.89062 39.090626Q478.39062 39.309376 478.125 39.73125Q477.85938 40.1375 477.85938 40.6375Q477.85938 41.41875 478.4375 41.934376Q479.03125 42.45 480.15625 42.45Q481.28125 42.45 482.14062 41.965626Q483.01562 41.465626 483.42188 40.621876Q483.73438 39.965626 483.73438 38.684376L483.73438 37.98125ZM488.42188 43.7L488.42188 32.29375L490.17188 32.29375L490.17188 34.028126Q490.82812 32.809376 491.39062 32.41875Q491.96875 32.028126 492.64062 32.028126Q493.625 32.028126 494.625 32.653126L493.96875 34.45Q493.25 34.028126 492.54688 34.028126Q491.90625 34.028126 491.40625 34.41875Q490.90625 34.79375 490.6875 35.465626Q490.35938 36.496876 490.35938 37.73125L490.35938 43.7L488.42188 43.7ZM494.67188 40.29375L496.59375 39.996876Q496.75 41.1375 497.48438 41.7625Q498.21875 42.371876 499.54688 42.371876Q500.875 42.371876 501.51562 41.825Q502.17188 41.278126 502.17188 40.559376Q502.17188 39.903126 501.59375 39.528126Q501.20312 39.2625 499.625 38.871876Q497.48438 38.325 496.65625 37.934376Q495.84375 37.54375 495.42188 36.85625Q495.0 36.153126 495.0 35.325Q495.0 34.559376 495.34375 33.91875Q495.70312 33.2625 496.29688 32.825Q496.75 32.496876 497.53125 32.2625Q498.3125 32.028126 499.20312 32.028126Q500.54688 32.028126 501.5625 32.41875Q502.57812 32.809376 503.0625 33.465626Q503.54688 34.121876 503.71875 35.23125L501.82812 35.496876Q501.70312 34.60625 501.07812 34.121876Q500.46875 33.621876 499.34375 33.621876Q498.0 33.621876 497.4375 34.059376Q496.875 34.496876 496.875 35.090626Q496.875 35.465626 497.10938 35.778126Q497.34375 36.090626 497.84375 36.29375Q498.14062 36.3875 499.54688 36.778126Q501.60938 37.325 502.42188 37.684376Q503.23438 38.028126 503.6875 38.7Q504.15625 39.35625 504.15625 40.340626Q504.15625 41.309376 503.59375 42.16875Q503.03125 43.028126 501.95312 43.496876Q500.89062 43.965626 499.54688 43.965626Q497.32812 43.965626 496.15625 43.04375Q495.0 42.10625 494.67188 40.29375ZM514.2656 40.028126L516.2656 40.278126Q515.78125 42.028126 514.5 42.996876Q513.2344 43.965626 511.23438 43.965626Q508.73438 43.965626 507.26562 42.41875Q505.8125 40.871876 505.8125 38.090626Q505.8125 35.215626 507.28125 33.621876Q508.76562 32.028126 511.14062 32.028126Q513.4219 32.028126 514.875 33.590626Q516.3281 35.153126 516.3281 37.98125Q516.3281 38.153126 516.3125 38.496876L507.79688 38.496876Q507.90625 40.371876 508.85938 41.371876Q509.82812 42.371876 511.25 42.371876Q512.3125 42.371876 513.0625 41.809376Q513.8125 41.246876 514.2656 40.028126ZM507.90625 36.903126L514.28125 36.903126Q514.15625 35.465626 513.5469 34.746876Q512.625 33.621876 511.15625 33.621876Q509.82812 33.621876 508.92188 34.5125Q508.01562 35.403126 507.90625 36.903126ZM518.4219 43.7L518.4219 32.29375L520.1719 32.29375L520.1719 34.028126Q520.8281 32.809376 521.3906 32.41875Q521.96875 32.028126 522.6406 32.028126Q523.625 32.028126 524.625 32.653126L523.96875 34.45Q523.25 34.028126 522.5469 34.028126Q521.90625 34.028126 521.40625 34.41875Q520.90625 34.79375 520.6875 35.465626Q520.3594 36.496876 520.3594 37.73125L520.3594 43.7L518.4219 43.7ZM529.96875 43.7L536.0156 27.95L538.2656 27.95L544.7031 43.7L542.3281 43.7L540.5 38.934376L533.90625 38.934376L532.1875 43.7L529.96875 43.7ZM534.5156 37.23125L539.84375 37.23125L538.2031 32.871876Q537.4531 30.8875 537.09375 29.60625Q536.7969 31.121876 536.2344 32.60625L534.5156 37.23125ZM551.2031 43.7L545.09375 27.95L547.3594 27.95L551.4531 39.3875Q551.9375 40.7625 552.2656 41.965626Q552.6406 40.684376 553.125 39.3875L557.375 27.95L559.5 27.95L553.34375 43.7L551.2031 43.7ZM560.09375 43.7L566.1875 35.496876L560.8125 27.95L563.2969 27.95L566.15625 31.996876Q567.0469 33.246876 567.4219 33.91875Q567.9531 33.059376 568.6719 32.1375L571.84375 27.95L574.1094 27.95L568.5781 35.371876L574.53125 43.7L571.9531 43.7L568.0 38.075Q567.65625 37.590626 567.3125 37.028126Q566.78125 37.8875 566.5469 38.215626L562.59375 43.7L560.09375 43.7ZM586.0781 41.840626L586.0781 43.7L575.6719 43.7Q575.6406 42.996876 575.8906 42.35625Q576.2969 41.29375 577.1719 40.2625Q578.0469 39.23125 579.6875 37.871876Q582.2656 35.778126 583.15625 34.54375Q584.0625 33.309376 584.0625 32.215626Q584.0625 31.059376 583.2344 30.278126Q582.4219 29.48125 581.1094 29.48125Q579.7031 29.48125 578.8594 30.325Q578.03125 31.16875 578.0156 32.653126L576.03125 32.434376Q576.2344 30.215626 577.5625 29.059376Q578.90625 27.8875 581.1406 27.8875Q583.40625 27.8875 584.71875 29.153126Q586.0469 30.403126 586.0469 32.2625Q586.0469 33.2 585.65625 34.121876Q585.28125 35.028126 584.375 36.04375Q583.4844 37.04375 581.40625 38.809376Q579.65625 40.278126 579.15625 40.79375Q578.6719 41.309376 578.3594 41.840626L586.0781 41.840626Z" fill-rule="nonzero"/></svg>